<?xml version="1.0" standalone="no"?>
<!DOCTYPE svg PUBLIC "-//W3C//DTD SVG 1.1//EN"
	"http://www.w3.org/Graphics/SVG/1.1/DTD/svg11.dtd">
<svg xmlns="http://www.w3.org/2000/svg" version="1.1"
	xmlns:xlink="http://www.w3.org/1999/xlink"
	color="black"
	width="701.60px" height="318.00px">
<style type="text/css">
.fill {fill: currentColor}
.stroke {stroke: currentColor; fill: none}
text{white-space: pre}
</style>
<title>hastetothewedding-1.abc (1) tune 1</title>
<!-- Creator: abcm2ps-8.14.6 -->
<!-- CreationDate: Oct  2, 2022 10:12 -->
<!-- CommandLine: -g hastetothewedding-1.abc -O hastetothewedding-1.svg -->
<g stroke-width="0.70">
<!-- title: Haste To The Wedding -->
</g>
<g stroke-width="0.70" style="font:20.00px Times">
<text x="350.80" y="22.00" text-anchor="middle">Haste To The Wedding</text>
</g>
<g stroke-width="0.70" style="font:20.00px Times">
<defs>
<g id="rdots" class="fill">
	<circle cx="0" cy="-9" r="1.2"/>
	<circle cx="0" cy="-15" r="1.2"/>
</g>
</defs>
<use x="87.00" y="85.00" xlink:href="#rdots"/>
<path class="stroke" stroke-width="1"
	d="M83.00 85.00v-24.00"/>
<path class="stroke" stroke-width="3"
	d="M78.50 85.00v-24.00"/>
<path class="stroke" stroke-width="1"
	d="M238.90 85.00v-24.00"/>
<path class="stroke" stroke-width="1"
	d="M389.80 85.00v-24.00"/>
<path class="stroke" stroke-width="1"
	d="M540.70 85.00v-24.00"/>
<path class="stroke" stroke-width="1"
	d="M691.60 85.00v-24.00"/>
<path d="m10.00 85.00
	h681.60
	M10.00 79.00
	h681.60
	M10.00 73.00
	h681.60
	M10.00 67.00
	h681.60
	M10.00 61.00
	h681.60
	" class="stroke"/>
<defs>
<path id="utclef" class="fill" d="m-50 -90
	c-72 -41 -72 -158 52 -188
	150 -10 220 188 90 256
	-114 52 -275 0 -293 -136
	-15 -181 93 -229 220 -334
	88 -87 79 -133 62 -210
	-51 33 -94 105 -89 186
	17 267 36 374 49 574
	6 96 -19 134 -77 135
	-80 1 -126 -93 -61 -133
	85 -41 133 101 31 105
	23 17 92 37 90 -92
	-10 -223 -39 -342 -50 -617
	0 -90 0 -162 96 -232
	56 72 63 230 22 289
	-74 106 -257 168 -255 316
	9 153 148 185 252 133
	86 -65 29 -192 -80 -176
	-71 12 -105 67 -59 124"/>
<use id="tclef" transform="translate(0,6) scale(0.045)"
	xlink:href="#utclef"/>
</defs>
<use x="22.00" y="79.00" xlink:href="#tclef"/>
<defs>
<path id="usharp" class="fill" d="
	m136 -702
	v890
	h32
	v-890
	m128 840
	h32
	v-888
	h-32
	m-232 286
	v116
	l338 -96
	v-116
	m-338 442
	v116
	l338 -98
	v-114"/>
<use id="sh0" transform="translate(-4,5) scale(0.018)"
	xlink:href="#usharp"/>
</defs>
<use x="37.00" y="61.00" xlink:href="#sh0"/>
<use x="42.50" y="70.00" xlink:href="#sh0"/>
<g style="font:bold 16px serif"
	transform="translate(58.50,84.50) scale(1.2,1)">
	<text text-anchor="middle">8</text>
	<text y="-12" text-anchor="middle">6</text>
</g>
<path class="fill"
	d="M104.30 58.00l47.40 0.00v3.20l-47.40 -0.00"/>
<defs>
<ellipse id="hd" rx="4.1" ry="2.9"
	transform="rotate(-20)" class="fill"/>
</defs>
<use x="101.10" y="76.00" xlink:href="#hd"/>
<path d="M104.60 76.00v-17.00" class="stroke"/>
<use x="124.50" y="82.00" xlink:href="#hd"/>
<path d="M128.00 82.00v-23.00" class="stroke"/>
<use x="147.90" y="76.00" xlink:href="#hd"/>
<path d="M151.40 76.00v-17.00" class="stroke"/>
<path class="fill"
	d="M170.00 95.20l47.40 -6.60v-3.20l-47.40 6.60"/>
<use x="173.90" y="76.00" xlink:href="#hd"/>
<path d="M170.40 76.00v18.20" class="stroke"/>
<use x="197.30" y="58.00" xlink:href="#hd"/>
<path d="M193.80 58.00v33.00" class="stroke"/>
<use x="220.70" y="61.00" xlink:href="#hd"/>
<path d="M217.20 61.00v26.70" class="stroke"/>
<path class="fill"
	d="M248.20 85.20l47.40 0.00v-3.20l-47.40 -0.00"/>
<use x="252.10" y="64.00" xlink:href="#hd"/>
<path d="M248.60 64.00v20.20" class="stroke"/>
<use x="275.40" y="67.00" xlink:href="#hd"/>
<path d="M271.90 67.00v17.20" class="stroke"/>
<use x="298.80" y="64.00" xlink:href="#hd"/>
<path d="M295.30 64.00v20.20" class="stroke"/>
<path class="fill"
	d="M320.90 84.20l47.40 8.00v-3.20l-47.40 -8.00"/>
<use x="324.80" y="61.00" xlink:href="#hd"/>
<path d="M321.30 61.00v22.30" class="stroke"/>
<use x="348.20" y="67.00" xlink:href="#hd"/>
<path d="M344.70 67.00v20.20" class="stroke"/>
<use x="371.50" y="73.00" xlink:href="#hd"/>
<path d="M368.00 73.00v18.20" class="stroke"/>
<path class="fill"
	d="M406.10 58.00l47.40 0.00v3.20l-47.40 -0.00"/>
<use x="402.90" y="76.00" xlink:href="#hd"/>
<path d="M406.40 76.00v-17.00" class="stroke"/>
<use x="426.30" y="82.00" xlink:href="#hd"/>
<path d="M429.80 82.00v-23.00" class="stroke"/>
<use x="449.70" y="76.00" xlink:href="#hd"/>
<path d="M453.20 76.00v-17.00" class="stroke"/>
<path class="fill"
	d="M478.80 47.80l47.40 6.60v3.20l-47.40 -6.60"/>
<use x="475.70" y="67.00" xlink:href="#hd"/>
<path d="M479.20 67.00v-18.20" class="stroke"/>
<use x="499.00" y="76.00" xlink:href="#hd"/>
<path d="M502.50 76.00v-24.00" class="stroke"/>
<use x="522.40" y="82.00" xlink:href="#hd"/>
<path d="M525.90 82.00v-26.70" class="stroke"/>
<path class="fill"
	d="M557.00 64.00l47.40 0.00v3.20l-47.40 -0.00"/>
<use x="553.80" y="85.00" xlink:href="#hd"/>
<path d="M557.30 85.00v-20.00" class="stroke"/>
<use x="577.20" y="82.00" xlink:href="#hd"/>
<path d="M580.70 82.00v-17.00" class="stroke"/>
<use x="600.60" y="85.00" xlink:href="#hd"/>
<path d="M604.10 85.00v-20.00" class="stroke"/>
<path class="fill"
	d="M629.70 63.40l47.40 -4.80v3.20l-47.40 4.80"/>
<use x="626.60" y="85.00" xlink:href="#hd"/>
<path d="M630.10 85.00v-20.60" class="stroke"/>
<use x="649.90" y="82.00" xlink:href="#hd"/>
<path d="M653.40 82.00v-20.00" class="stroke"/>
<use x="673.30" y="79.00" xlink:href="#hd"/>
<path d="M676.80 79.00v-19.40" class="stroke"/>
</g>
<g stroke-width="0.70" style="font:20.00px Times">
<path class="stroke" stroke-width="1"
	d="M219.00 155.00v-24.00"/>
<path class="stroke" stroke-width="1"
	d="M392.50 155.00v-24.00"/>
<path class="stroke" stroke-width="1"
	d="M554.40 155.00v-24.00"/>
<path class="stroke" stroke-width="3"
	d="M690.10 155.00v-24.00"/>
<path class="stroke" stroke-width="1"
	d="M685.60 155.00v-24.00"/>
<use x="681.60" y="155.00" xlink:href="#rdots"/>
<path d="m10.00 155.00
	h681.60
	M10.00 149.00
	h681.60
	M10.00 143.00
	h681.60
	M10.00 137.00
	h681.60
	M10.00 131.00
	h681.60
	" class="stroke"/>
<use x="22.00" y="149.00" xlink:href="#tclef"/>
<use x="37.00" y="131.00" xlink:href="#sh0"/>
<use x="42.50" y="140.00" xlink:href="#sh0"/>
<path class="fill"
	d="M63.70 128.00l54.50 0.00v3.20l-54.50 -0.00"/>
<use x="60.50" y="146.00" xlink:href="#hd"/>
<path d="M64.00 146.00v-17.00" class="stroke"/>
<use x="87.40" y="152.00" xlink:href="#hd"/>
<path d="M90.90 152.00v-23.00" class="stroke"/>
<use x="114.30" y="146.00" xlink:href="#hd"/>
<path d="M117.80 146.00v-17.00" class="stroke"/>
<path class="fill"
	d="M140.40 165.20l54.50 -6.80v-3.20l-54.50 6.80"/>
<use x="144.20" y="146.00" xlink:href="#hd"/>
<path d="M140.70 146.00v18.20" class="stroke"/>
<use x="171.20" y="128.00" xlink:href="#hd"/>
<path d="M167.70 128.00v32.80" class="stroke"/>
<use x="198.10" y="131.00" xlink:href="#hd"/>
<path d="M194.60 131.00v26.50" class="stroke"/>
<path class="fill"
	d="M230.10 155.20l54.50 0.00v-3.20l-54.50 -0.00"/>
<use x="234.00" y="134.00" xlink:href="#hd"/>
<path d="M230.50 134.00v20.20" class="stroke"/>
<use x="260.90" y="137.00" xlink:href="#hd"/>
<path d="M257.40 137.00v17.20" class="stroke"/>
<use x="287.80" y="134.00" xlink:href="#hd"/>
<path d="M284.30 134.00v20.20" class="stroke"/>
<path class="fill"
	d="M313.90 153.80l54.50 8.40v-3.20l-54.50 -8.40"/>
<use x="317.70" y="131.00" xlink:href="#hd"/>
<path d="M314.20 131.00v21.90" class="stroke"/>
<use x="344.60" y="137.00" xlink:href="#hd"/>
<path d="M341.10 137.00v20.00" class="stroke"/>
<use x="371.60" y="143.00" xlink:href="#hd"/>
<path d="M368.10 143.00v18.20" class="stroke"/>
<use x="407.40" y="146.00" xlink:href="#hd"/>
<path d="M410.90 146.00v-21.00" class="stroke"/>
<use x="449.70" y="128.00" xlink:href="#hd"/>
<path d="M446.20 128.00v21.00" class="stroke"/>
<path class="fill"
	d="M446.20 149.00c0.6 -5.6 9.6 -9 5.6 -18.4
	1.6 6 -1.3 11.6 -5.6 12.8
"/>
<path class="fill"
	d="M475.80 149.20l54.50 0.00v-3.20l-54.50 -0.00"/>
<use x="479.60" y="131.00" xlink:href="#hd"/>
<path d="M476.10 131.00v17.20" class="stroke"/>
<defs>
<path id="hl" class="stroke" d="m-6 0h12"/>
</defs>
<use x="506.50" y="125.00" xlink:href="#hl"/>
<use x="506.50" y="125.00" xlink:href="#hd"/>
<path d="M503.00 125.00v23.20" class="stroke"/>
<use x="533.50" y="131.00" xlink:href="#hd"/>
<path d="M530.00 131.00v17.20" class="stroke"/>
<path class="fill"
	d="M565.50 158.00l54.50 0.00v-3.20l-54.50 -0.00"/>
<use x="569.40" y="137.00" xlink:href="#hd"/>
<path d="M565.90 137.00v20.00" class="stroke"/>
<use x="596.30" y="134.00" xlink:href="#hd"/>
<path d="M592.80 134.00v23.00" class="stroke"/>
<use x="623.20" y="137.00" xlink:href="#hd"/>
<path d="M619.70 137.00v20.00" class="stroke"/>
<use x="653.10" y="137.00" xlink:href="#hd"/>
<circle class="fill" cx="660.80" cy="134.00" r="1.2"/>
<path d="M649.60 137.00v21.00" class="stroke"/>
</g>
<g stroke-width="0.70" style="font:20.00px Times">
<use x="67.00" y="225.00" xlink:href="#rdots"/>
<path class="stroke" stroke-width="1"
	d="M63.00 225.00v-24.00"/>
<path class="stroke" stroke-width="3"
	d="M58.50 225.00v-24.00"/>
<path class="stroke" stroke-width="1"
	d="M223.90 225.00v-24.00"/>
<path class="stroke" stroke-width="1"
	d="M379.80 225.00v-24.00"/>
<path class="stroke" stroke-width="1"
	d="M535.70 225.00v-24.00"/>
<path class="stroke" stroke-width="1"
	d="M691.60 225.00v-24.00"/>
<path d="m10.00 225.00
	h681.60
	M10.00 219.00
	h681.60
	M10.00 213.00
	h681.60
	M10.00 207.00
	h681.60
	M10.00 201.00
	h681.60
	" class="stroke"/>
<use x="22.00" y="219.00" xlink:href="#tclef"/>
<use x="37.00" y="201.00" xlink:href="#sh0"/>
<use x="42.50" y="210.00" xlink:href="#sh0"/>
<path class="fill"
	d="M77.60 219.20l49.00 0.00v-3.20l-49.00 -0.00"/>
<use x="81.50" y="195.00" xlink:href="#hl"/>
<use x="81.50" y="195.00" xlink:href="#hd"/>
<path d="M78.00 195.00v23.20" class="stroke"/>
<use x="105.70" y="201.00" xlink:href="#hd"/>
<path d="M102.20 201.00v17.20" class="stroke"/>
<use x="129.80" y="195.00" xlink:href="#hl"/>
<use x="129.80" y="195.00" xlink:href="#hd"/>
<path d="M126.30 195.00v23.20" class="stroke"/>
<path class="fill"
	d="M152.90 219.20l49.00 0.00v-3.20l-49.00 -0.00"/>
<use x="156.70" y="195.00" xlink:href="#hl"/>
<use x="156.70" y="195.00" xlink:href="#hd"/>
<path d="M153.20 195.00v23.20" class="stroke"/>
<use x="180.90" y="201.00" xlink:href="#hd"/>
<path d="M177.40 201.00v17.20" class="stroke"/>
<use x="205.10" y="195.00" xlink:href="#hl"/>
<use x="205.10" y="195.00" xlink:href="#hd"/>
<path d="M201.60 195.00v23.20" class="stroke"/>
<path class="fill"
	d="M233.60 216.00l49.00 0.00v-3.20l-49.00 -0.00"/>
<use x="237.40" y="195.00" xlink:href="#hl"/>
<use x="237.40" y="192.00" xlink:href="#hd"/>
<path d="M233.90 192.00v23.00" class="stroke"/>
<use x="261.60" y="198.00" xlink:href="#hd"/>
<path d="M258.10 198.00v17.00" class="stroke"/>
<use x="285.70" y="195.00" xlink:href="#hl"/>
<use x="285.70" y="192.00" xlink:href="#hd"/>
<path d="M282.20 192.00v23.00" class="stroke"/>
<path class="fill"
	d="M308.80 216.00l49.00 0.00v-3.20l-49.00 -0.00"/>
<use x="312.60" y="195.00" xlink:href="#hl"/>
<use x="312.60" y="192.00" xlink:href="#hd"/>
<path d="M309.10 192.00v23.00" class="stroke"/>
<use x="336.80" y="198.00" xlink:href="#hd"/>
<path d="M333.30 198.00v17.00" class="stroke"/>
<use x="361.00" y="195.00" xlink:href="#hl"/>
<use x="361.00" y="192.00" xlink:href="#hd"/>
<path d="M357.50 192.00v23.00" class="stroke"/>
<path class="fill"
	d="M389.50 219.20l49.00 0.00v-3.20l-49.00 -0.00"/>
<use x="393.30" y="195.00" xlink:href="#hl"/>
<use x="393.30" y="195.00" xlink:href="#hd"/>
<path d="M389.80 195.00v23.20" class="stroke"/>
<use x="417.50" y="201.00" xlink:href="#hd"/>
<path d="M414.00 201.00v17.20" class="stroke"/>
<use x="441.60" y="195.00" xlink:href="#hl"/>
<use x="441.60" y="195.00" xlink:href="#hd"/>
<path d="M438.10 195.00v23.20" class="stroke"/>
<path class="fill"
	d="M464.70 216.60l49.00 4.90v-3.20l-49.00 -4.90"/>
<use x="468.50" y="195.00" xlink:href="#hl"/>
<use x="468.50" y="195.00" xlink:href="#hd"/>
<path d="M465.00 195.00v20.60" class="stroke"/>
<use x="492.70" y="198.00" xlink:href="#hd"/>
<path d="M489.20 198.00v20.00" class="stroke"/>
<use x="516.90" y="201.00" xlink:href="#hd"/>
<path d="M513.40 201.00v19.40" class="stroke"/>
<path class="fill"
	d="M545.40 225.20l49.00 0.00v-3.20l-49.00 -0.00"/>
<use x="549.20" y="204.00" xlink:href="#hd"/>
<path d="M545.70 204.00v20.20" class="stroke"/>
<use x="573.40" y="207.00" xlink:href="#hd"/>
<path d="M569.90 207.00v17.20" class="stroke"/>
<use x="597.50" y="204.00" xlink:href="#hd"/>
<path d="M594.00 204.00v20.20" class="stroke"/>
<path class="fill"
	d="M620.60 224.40l49.00 -4.90v-3.20l-49.00 4.90"/>
<use x="624.40" y="204.00" xlink:href="#hd"/>
<path d="M620.90 204.00v19.40" class="stroke"/>
<use x="648.60" y="201.00" xlink:href="#hd"/>
<path d="M645.10 201.00v20.00" class="stroke"/>
<use x="672.80" y="198.00" xlink:href="#hd"/>
<path d="M669.30 198.00v20.60" class="stroke"/>
</g>
<g stroke-width="0.70" style="font:20.00px Times">
<path class="stroke" stroke-width="1"
	d="M153.60 295.00v-24.00"/>
<path class="stroke" stroke-width="1"
	d="M351.10 295.00v-24.00"/>
<path class="stroke" stroke-width="1"
	d="M535.40 295.00v-24.00"/>
<path class="stroke" stroke-width="3"
	d="M690.10 295.00v-24.00"/>
<path class="stroke" stroke-width="1"
	d="M685.60 295.00v-24.00"/>
<use x="681.60" y="295.00" xlink:href="#rdots"/>
<path d="m10.00 295.00
	h681.60
	M10.00 289.00
	h681.60
	M10.00 283.00
	h681.60
	M10.00 277.00
	h681.60
	M10.00 271.00
	h681.60
	" class="stroke"/>
<use x="22.00" y="289.00" xlink:href="#tclef"/>
<use x="37.00" y="271.00" xlink:href="#sh0"/>
<use x="42.50" y="280.00" xlink:href="#sh0"/>
<use x="60.50" y="265.00" xlink:href="#hl"/>
<use x="60.50" y="265.00" xlink:href="#hd"/>
<circle class="fill" cx="68.20" cy="262.00" r="1.2"/>
<path d="M57.00 265.00v21.00" class="stroke"/>
<use x="115.30" y="271.00" xlink:href="#hd"/>
<circle class="fill" cx="123.00" cy="268.00" r="1.2"/>
<path d="M111.80 271.00v21.00" class="stroke"/>
<path class="fill"
	d="M166.80 295.20l62.00 0.00v-3.20l-62.00 -0.00"/>
<use x="170.70" y="274.00" xlink:href="#hd"/>
<path d="M167.20 274.00v20.20" class="stroke"/>
<use x="201.30" y="277.00" xlink:href="#hd"/>
<path d="M197.80 277.00v17.20" class="stroke"/>
<use x="231.90" y="274.00" xlink:href="#hd"/>
<path d="M228.40 274.00v20.20" class="stroke"/>
<path class="fill"
	d="M262.10 293.60l62.00 8.70v-3.20l-62.00 -8.70"/>
<use x="266.00" y="271.00" xlink:href="#hd"/>
<path d="M262.50 271.00v21.70" class="stroke"/>
<use x="296.60" y="277.00" xlink:href="#hd"/>
<path d="M293.10 277.00v20.00" class="stroke"/>
<use x="327.30" y="283.00" xlink:href="#hd"/>
<path d="M323.80 283.00v18.30" class="stroke"/>
<use x="368.10" y="286.00" xlink:href="#hd"/>
<path d="M371.60 286.00v-21.00" class="stroke"/>
<use x="416.30" y="268.00" xlink:href="#hd"/>
<path d="M412.80 268.00v21.00" class="stroke"/>
<path class="fill"
	d="M412.80 289.00c0.6 -5.6 9.6 -9 5.6 -18.4
	1.6 6 -1.3 11.6 -5.6 12.8
"/>
<path class="fill"
	d="M446.50 289.20l62.00 0.00v-3.20l-62.00 -0.00"/>
<use x="450.30" y="271.00" xlink:href="#hd"/>
<path d="M446.80 271.00v17.20" class="stroke"/>
<use x="480.90" y="265.00" xlink:href="#hl"/>
<use x="480.90" y="265.00" xlink:href="#hd"/>
<path d="M477.40 265.00v23.20" class="stroke"/>
<use x="511.60" y="271.00" xlink:href="#hd"/>
<path d="M508.10 271.00v17.20" class="stroke"/>
<path class="fill"
	d="M548.60 298.00l62.00 0.00v-3.20l-62.00 -0.00"/>
<use x="552.40" y="277.00" xlink:href="#hd"/>
<path d="M548.90 277.00v20.00" class="stroke"/>
<use x="583.10" y="274.00" xlink:href="#hd"/>
<path d="M579.60 274.00v23.00" class="stroke"/>
<use x="613.70" y="277.00" xlink:href="#hd"/>
<path d="M610.20 277.00v20.00" class="stroke"/>
<use x="647.80" y="277.00" xlink:href="#hd"/>
<circle class="fill" cx="655.50" cy="274.00" r="1.2"/>
<path d="M644.30 277.00v21.00" class="stroke"/>
</g>
</svg>
