<?xml version="1.0" encoding="UTF-8" standalone="no"?>
<!DOCTYPE svg PUBLIC "-//W3C//DTD SVG 1.1//EN" "http://www.w3.org/Graphics/SVG/1.1/DTD/svg11.dtd">
<!-- Created with Vectornator (http://vectornator.io/) -->
<svg stroke-miterlimit="10" style="fill-rule:nonzero;clip-rule:evenodd;stroke-linecap:round;stroke-linejoin:round;" version="1.1" viewBox="0 0 223.84 157.459" xml:space="preserve" xmlns="http://www.w3.org/2000/svg" xmlns:xlink="http://www.w3.org/1999/xlink">
<defs/>
<clipPath id="ArtboardFrame">
<rect height="157.459" width="223.84" x="0" y="0"/>
</clipPath>
<g clip-path="url(#ArtboardFrame)" id="layer1">
<path d="M30.2004 133.842C31.6634 128.336 30.5948 122.45 30.4971 116.755C30.3109 105.901 29.7687 95.0518 29.7817 84.1965C29.8147 56.6841 30.8929 29.6481 33.8907 2.34805C33.5335 3.17929 33.5335 3.17929 33.1763 4.01053" fill="none" opacity="1" stroke="#3b464c" stroke-linecap="round" stroke-linejoin="round" stroke-width="2.5515"/>
<path d="M28.2684 10.7461C27.6003 11.3852 27.2903 11.6866 27.3383 11.6502C27.3723 11.6244 27.4575 11.5599 27.5939 11.4567C27.7301 11.3535 28.1403 10.7758 28.8245 9.72362C29.5085 8.67139 30.1767 7.61024 30.829 6.54015C31.4813 5.47007 31.9379 4.72458 32.199 4.3037C32.4601 3.88281 32.7095 3.45015 32.9471 3.00569C33.1847 2.56125 33.4047 2.18359 33.607 1.87272C33.8093 1.56186 33.9556 1.36467 34.046 1.28115C34.1363 1.19762 34.9519 1.919 36.4928 3.44526C38.0336 4.97153 39.0483 5.98878 39.537 6.49701C40.0256 7.00523 40.6009 7.63106 41.2629 8.37448C41.925 9.11791 42.3601 9.61994 42.5685 9.88058C42.7769 10.1412 42.952 10.3217 43.0939 10.4221C43.2358 10.5225 43.3192 10.5815 43.3441 10.5992" fill="none" opacity="1" stroke="#3b464c" stroke-linecap="round" stroke-linejoin="round" stroke-width="2.5515"/>
<path d="M29.774 134.672C47.7976 130.261 66.6522 130.468 85.1452 128.945C127.253 125.478 168.401 124.376 210.617 124.571" fill="none" opacity="1" stroke="#3b464c" stroke-linecap="round" stroke-linejoin="round" stroke-width="2.5515"/>
<path d="M31.7103 133.845C31.464 133.845 31.4203 133.723 31.5792 133.479C31.7381 133.235 32.2263 132.713 33.0439 131.913C33.8615 131.112 34.6431 130.324 35.3888 129.549C36.1346 128.773 38.8832 125.918 39.9233 124.899C40.9634 123.881 44.2607 120.654 44.8852 120.032C45.5098 119.411 50.8708 114.419 51.6388 113.683C52.4069 112.947 53.1561 112.219 53.8866 111.5C54.617 110.781 57.5485 107.934 58.2692 107.217C58.99 106.501 62.19 103.153 62.9663 102.326C63.7424 101.499 64.4945 100.718 65.2224 99.9835C65.9504 99.2491 68.6341 96.4947 69.1986 95.8903C69.7633 95.2859 71.595 93.3774 72.1362 92.7958C72.6774 92.2142 73.1443 91.7482 73.5368 91.3979" fill="none" opacity="1" stroke="#72afa9" stroke-linecap="round" stroke-linejoin="round" stroke-width="2.5515"/>
<path d="M74.4625 91.0717C77.5156 91.0933 79.5762 91.0798 80.6441 91.031C81.3834 90.9972 82.5317 90.9537 84.0887 90.9006C85.6459 90.8474 90.4264 90.8203 98.4304 90.8192C106.434 90.8181 110.854 90.8214 111.69 90.8289C112.526 90.8363 113.764 90.8859 115.404 90.9774C117.044 91.0689 118.595 91.1388 120.055 91.1871C121.515 91.2353 122.591 91.2642 123.284 91.2736C123.976 91.283 124.695 91.301 125.441 91.3276C126.187 91.3542 127.054 91.3928 128.042 91.4435C129.031 91.4942 129.712 91.5252 130.086 91.5362C130.46 91.5473 130.658 91.5532 130.68 91.5538C130.701 91.5544 130.703 91.556 130.685 91.5582C130.659 91.5615 130.338 91.5997 129.722 91.6737" fill="none" opacity="1" stroke="#72afa9" stroke-linecap="round" stroke-linejoin="round" stroke-width="2.5515"/>
<path d="M130.227 91.1265C129.904 91.3422 129.766 91.4148 129.813 91.3441C129.846 91.2935 129.93 91.167 130.063 90.9647C130.196 90.7624 130.523 90.3696 131.043 89.7864C131.564 89.2032 132.25 88.4604 133.103 87.5582C133.956 86.6561 137.325 83.0323 137.667 82.623C138.008 82.2136 138.335 81.8078 138.646 81.4052C138.958 81.0027 143.009 76.298 143.637 75.6346C144.265 74.9713 145.999 72.8672 146.388 72.3594C146.777 71.8516 149.395 69.0359 151.372 67.0997C152.006 66.478 155.29 63.6548 155.811 63.213C156.332 62.7712 159.641 59.7176 160.165 59.2458C160.69 58.7738 165.011 55.0139 165.436 54.6544C165.861 54.295 169.513 51.0233 170.38 50.2259C171.247 49.4286 171.836 48.8948 172.147 48.6246C172.458 48.3544 172.733 48.0987 172.972 47.8576L173.308 47.5185L173.307 47.5201C173.283 47.5431 173.209 47.6153 173.085 47.7369" fill="none" opacity="1" stroke="#72afa9" stroke-linecap="round" stroke-linejoin="round" stroke-width="2.5515"/>
<path d="M174.314 46.8199C174.38 46.9341 174.576 46.9788 174.901 46.9541C175.117 46.9376 176.462 46.5996 178.935 45.9398C181.409 45.2801 183.08 44.8174 183.951 44.5519C184.821 44.2864 185.721 44.0141 186.651 43.735C187.581 43.4559 188.997 43.0409 190.9 42.4897C192.803 41.9386 194.742 41.38 196.718 40.8139C198.694 40.2478 200.171 39.8125 201.148 39.5081C202.126 39.2037 203.148 38.8949 204.214 38.5818C205.281 38.2686 206.312 37.9847 207.307 37.73C208.302 37.4754 209.791 37.1341 211.774 36.706C213.756 36.278 215.365 35.9223 216.601 35.6391" fill="none" opacity="1" stroke="#72afa9" stroke-linecap="round" stroke-linejoin="round" stroke-width="2.5515"/>
<path d="M211.564 119.291C215.109 122.892 212.801 120.93 219.011 124.501C213.326 128.806 215.626 126.821 211.92 130.228" fill="none" opacity="1" stroke="#3b464c" stroke-linecap="round" stroke-linejoin="round" stroke-width="2.5515"/>
<path d="M75.3661 84.585C75.0879 84.585 74.9381 84.2311 74.9168 83.5234C74.8954 82.8156 74.8847 81.3315 74.8847 79.0711C74.8847 76.8106 74.8896 75.1489 74.9 74.086C74.9102 73.0229 74.8221 72.5262 74.6356 72.5956" fill="none" opacity="1" stroke="#e28e6e" stroke-linecap="round" stroke-linejoin="round" stroke-width="0.850497"/>
<path d="M75.6403 63.2057C75.3235 63.3606 75.1396 63.2357 75.0885 62.8311C75.0516 62.5384 75.0326 61.8091 75.0315 60.6433C75.0304 59.4775 75.0505 58.5775 75.0918 57.9434C75.1331 57.3094 75.1955 56.564 75.279 55.7073C75.3625 54.8507 75.4068 54.3972 75.4116 54.347C75.4165 54.2969 75.4192 54.2838 75.4197 54.3078C75.4203 54.3417 75.4296 54.7632 75.4471 55.5722" fill="none" opacity="1" stroke="#e28e6e" stroke-linecap="round" stroke-linejoin="round" stroke-width="0.850497"/>
<path d="M129.995 86.7409C130.082 87.0728 130.128 87.2499 130.134 87.2721C130.138 87.2877 130.14 87.2828 130.14 87.2573C130.14 87.232 130.14 87.0815 130.14 86.8061C130.14 86.5307 130.122 86.1226 130.086 85.5816C130.049 85.0408 130.026 84.2711 130.015 83.2726C130.003 82.274 129.997 81.1627 129.996 79.9387C129.995 78.7146 129.995 78.0703 129.995 78.0059C129.995 77.9414 129.996 77.9153 130 77.9275C130.005 77.9448 130.074 78.1821 130.207 78.6394" fill="none" opacity="1" stroke="#e28e6e" stroke-linecap="round" stroke-linejoin="round" stroke-width="0.850497"/>
<path d="M130.866 69.7325C130.949 70.1167 130.993 70.3198 130.998 70.3419C131.001 70.3574 131.001 70.3294 130.997 70.258C130.993 70.1864 130.966 69.7012 130.916 68.8022C130.866 67.9032 130.84 66.8421 130.838 65.619C130.836 64.3959 130.889 63.9247 130.998 64.2054" fill="none" opacity="1" stroke="#e28e6e" stroke-linecap="round" stroke-linejoin="round" stroke-width="0.850497"/>
<path d="M131.018 55.2504C131.294 55.3318 131.442 55.2306 131.462 54.9469C131.477 54.7438 131.463 54.5098 131.42 54.245C131.376 53.9802 131.331 53.6123 131.286 53.1414C131.24 52.6704 131.215 51.9622 131.21 51.0167C131.205 50.0712 131.207 49.3878 131.216 48.9666" fill="none" opacity="1" stroke="#e28e6e" stroke-linecap="round" stroke-linejoin="round" stroke-width="0.850497"/>
<path d="M130.022 97.956C130.045 99.2484 130.056 100.473 130.056 101.629C130.056 102.405 130.069 103.082 130.096 103.66C130.123 104.237 130.137 104.641 130.138 104.87C130.139 105.099 130.14 105.22 130.14 105.232C130.14 105.244 130.139 105.244 130.137 105.234C130.135 105.219 130.101 105.015 130.036 104.621" fill="none" opacity="1" stroke="#e28e6e" stroke-linecap="round" stroke-linejoin="round" stroke-width="0.850497"/>
<path d="M130.698 109.203C130.881 109.203 130.961 109.693 130.936 110.675C130.911 111.656 130.893 112.824 130.882 114.18C130.871 115.535 130.883 116.321 130.916 116.536C130.95 116.752 130.968 116.867 130.97 116.883C130.973 116.899 130.974 116.905 130.974 116.901C130.974 116.897 130.975 116.871 130.977 116.823C130.978 116.776 130.979 116.745 130.98 116.731" fill="none" opacity="1" stroke="#e28e6e" stroke-linecap="round" stroke-linejoin="round" stroke-width="0.850497"/>
<path d="M75.9545 98.5454C76.0691 98.3994 76.1301 98.3217 76.1376 98.3121C76.1431 98.3054 76.1431 98.3116 76.138 98.3308C76.1331 98.35 76.1026 98.4659 76.0468 98.6784C75.9911 98.8909 75.9383 99.2092 75.8884 99.6335C75.8385 100.058 75.8091 100.881 75.8 102.102C75.791 103.324 75.7945 104.103 75.8105 104.441C75.8265 104.779 75.8588 105.024 75.9074 105.176C75.956 105.328 75.9838 105.415 75.9908 105.437C75.9979 105.459 76.0021 105.461 76.0036 105.442C76.0058 105.415 76.0163 105.277 76.0355 105.026" fill="none" opacity="1" stroke="#e28e6e" stroke-linecap="round" stroke-linejoin="round" stroke-width="0.850497"/>
<path d="M75.305 109.426C75.7647 109.37 76.0057 109.579 76.028 110.053C76.0503 110.528 76.0614 111.633 76.0614 113.369C76.0615 115.105 76.0615 116.019 76.0615 116.11L76.0604 116.236L76.0602 116.235C76.0591 116.223 76.0426 116.06 76.011 115.745" fill="none" opacity="1" stroke="#e28e6e" stroke-linecap="round" stroke-linejoin="round" stroke-width="0.850497"/>
<path d="M76.5964 120.476C76.4552 120.786 76.3829 121.226 76.3796 121.797C76.3764 122.368 76.4381 123.219 76.5648 124.35C76.6915 125.481 76.8974 126.229 77.1825 126.596" fill="none" opacity="1" stroke="#e28e6e" stroke-linecap="round" stroke-linejoin="round" stroke-width="0.850497"/>
<path d="M82.3855 45.7165C82.5307 45.463 82.6163 45.3138 82.642 45.2689C82.66 45.2375 82.6678 45.2318 82.6653 45.252C82.6626 45.2721 82.6563 45.3249 82.6457 45.4104C82.6352 45.496 82.549 45.6548 82.3873 45.8869C82.2255 46.119 81.9365 46.4479 81.5203 46.8736C81.104 47.2994 80.7479 47.6795 80.452 48.0141C80.156 48.3486 79.9036 48.6575 79.6948 48.9405C79.486 49.2236 79.3251 49.4327 79.2122 49.5677C79.0993 49.7027 79.0081 49.8329 78.9387 49.9585C78.8693 50.084 78.8445 50.1944 78.8643 50.2897C78.8841 50.385 78.9887 50.4974 79.1782 50.6268C79.3677 50.7562 79.6959 50.9407 80.1629 51.1803C80.63 51.4199 81.0368 51.608 81.3834 51.7447C81.73 51.8813 82.0705 52.0083 82.405 52.1254C82.7395 52.2427 83.0601 52.3377 83.3669 52.4105C83.6738 52.4833 83.8397 52.5227 83.8648 52.5286C83.8898 52.5346 83.8956 52.5368 83.8823 52.5352C83.8633 52.5331 83.6927 52.5134 83.3705 52.4762" fill="none" opacity="1" stroke="#e28e6e" stroke-linecap="round" stroke-linejoin="round" stroke-width="2.5515"/>
<path d="M125.55 44.7879C125.472 44.4204 125.43 44.2262 125.426 44.2051C125.422 44.1902 125.421 44.1897 125.421 44.2034C125.421 44.2172 125.421 44.3113 125.42 44.4855C125.42 44.6596 125.468 44.8325 125.565 45.004C125.661 45.1755 125.808 45.3583 126.006 45.5522C126.204 45.7461 126.493 46.0002 126.873 46.3145C127.253 46.6288 127.699 47.0346 128.212 47.5318C128.726 48.0291 128.966 48.3252 128.935 48.4203C128.903 48.5152 128.536 48.8 127.833 49.2748C127.131 49.7495 126.602 50.1193 126.247 50.3842C125.892 50.6492 125.568 50.9018 125.276 51.1421C124.984 51.3826 124.754 51.5094 124.586 51.5229" fill="none" opacity="1" stroke="#e28e6e" stroke-linecap="round" stroke-linejoin="round" stroke-width="2.5515"/>
<path d="M79.9368 49.0717C79.9368 49.1333 79.9368 49.166 79.9368 49.1699C79.9368 49.1726 79.9379 49.1726 79.9401 49.1694C79.9423 49.1661 79.9567 49.1467 79.9831 49.1107C80.0094 49.0747 80.0874 49.0393 80.2172 49.0043C80.3469 48.9694 80.5994 48.933 80.9748 48.895C81.3502 48.8571 81.8272 48.8017 82.4059 48.729C82.9845 48.6562 83.529 48.5909 84.0394 48.533C84.5498 48.4751 84.9096 48.4281 85.1189 48.3919C85.3282 48.3558 85.7288 48.2789 86.3204 48.1613C86.9121 48.0437 87.4983 47.938 88.0789 47.8441C88.6596 47.7502 89.0786 47.6865 89.336 47.6529C89.5933 47.6192 89.8242 47.5924 90.0285 47.5727C90.2328 47.5529 90.6746 47.522 91.3542 47.48C92.0337 47.438 92.505 47.4101 92.7678 47.3963C93.0306 47.3825 93.4385 47.3684 93.9915 47.3539C94.5445 47.3394 94.9668 47.3256 95.2585 47.3124C95.5502 47.2993 95.9726 47.2884 96.5255 47.2798C97.0785 47.2712 97.5541 47.2624 97.9524 47.2535C98.3506 47.2446 98.7473 47.2317 99.1423 47.2149C99.5373 47.1981 99.9228 47.1779 100.299 47.1543C100.675 47.1308 101.056 47.1102 101.442 47.0925C101.828 47.0748 102.213 47.0589 102.598 47.0447C102.982 47.0305 103.352 47.0132 103.709 46.993C104.065 46.9727 104.441 46.9481 104.835 46.9192C105.23 46.8903 105.592 46.8663 105.921 46.8471C106.249 46.828 106.577 46.8142 106.903 46.8058C107.229 46.7974 107.557 46.7927 107.889 46.7919C108.221 46.7913 108.551 46.7859 108.88 46.7763C109.209 46.7668 109.527 46.7539 109.834 46.7376C110.142 46.7213 110.449 46.7028 110.757 46.6823C111.065 46.6618 111.379 46.6491 111.7 46.644C112.02 46.6391 112.69 46.6362 113.71 46.6357C114.73 46.6351 115.407 46.6362 115.743 46.6395C116.078 46.6422 116.589 46.6574 117.276 46.6843C117.963 46.7114 118.444 46.7379 118.719 46.7642C118.995 46.7904 119.272 46.8201 119.552 46.8535C119.832 46.8868 120.111 46.9178 120.388 46.9466C120.665 46.9753 120.918 46.9988 121.149 47.017C121.38 47.0352 121.791 47.081 122.382 47.1544C122.973 47.2277 123.349 47.2727 123.51 47.2894C123.67 47.3061 123.906 47.3251 124.215 47.3461C124.525 47.3672 124.856 47.4035 125.209 47.4548C125.561 47.5062 125.821 47.5489 125.987 47.5831C126.154 47.6172 126.404 47.6842 126.737 47.7841C127.07 47.884 127.265 47.9488 127.32 47.9787C127.376 48.0085 127.412 48.0281 127.429 48.0374C127.447 48.0466 127.432 48.053 127.387 48.0565C127.321 48.0614 127.151 48.0744 126.878 48.0952" fill="none" opacity="1" stroke="#e28e6e" stroke-linecap="round" stroke-linejoin="round" stroke-width="2.5515"/>
<path d="M196.685 134.69C194.106 143.419 189.286 154.092 201.603 146.662" fill="none" opacity="1" stroke="#3b464c" stroke-linecap="round" stroke-linejoin="round" stroke-width="2.5515"/>
<path d="M190.474 141.78C193.702 140.392 196.289 139.4 199.793 139.414" fill="none" opacity="1" stroke="#3b464c" stroke-linecap="round" stroke-linejoin="round" stroke-width="2.5515"/>
<path d="M9.21537 18.3299C9.1089 17.3668 8.92351 16.6464 8.65921 16.1688C8.47808 15.8414 8.21633 15.5587 7.87398 15.3207C7.53162 15.0826 7.24986 14.9496 7.0287 14.9215C6.80753 14.8935 6.54934 14.9468 6.2541 15.0816C5.95888 15.2164 5.60192 15.5159 5.18322 15.9801C4.76451 16.4444 4.31573 17.0366 3.83688 17.7567C3.35803 18.4769 2.91203 19.2798 2.49886 20.1656C2.08569 21.0513 1.79017 21.8505 1.61229 22.563C1.43442 23.2755 1.32976 23.8358 1.29832 24.2439C1.26688 24.652 1.26836 25.0947 1.30279 25.5721C1.3372 26.0494 1.48244 26.4318 1.73851 26.7191C1.99458 27.0064 2.36696 27.2241 2.85566 27.3722C3.34436 27.5203 3.99621 27.5235 4.81121 27.3817C5.62621 27.2398 6.36111 26.942 7.01592 26.4883C7.67072 26.0345 8.27496 25.5038 8.82862 24.8962C9.38229 24.2886 9.83019 23.6555 10.1723 22.9969C10.5145 22.3383 10.7658 21.6878 10.9263 21.0455C11.0868 20.4031 11.1893 19.5091 11.2336 18.3634C11.278 17.2177 11.1335 16.109 10.8004 15.0375C10.4672 13.9659 10.1965 13.1069 9.98838 12.4604C9.78025 11.814 9.64498 11.21 9.58257 10.6486C9.52015 10.0871 9.47845 9.05323 9.45745 7.54686C9.43645 6.04051 9.4254 5.24764 9.42429 5.16827L9.42271 5.07284L9.42265 5.07869C9.42265 5.09834 9.42265 5.29464 9.42265 5.66759C9.42265 6.04055 9.52028 6.81628 9.71556 7.99479C9.91083 9.1733 10.3178 11.4678 10.9365 14.8783C11.5551 18.2889 11.9427 20.3186 12.0993 20.9675C12.2559 21.6164 12.4483 22.2413 12.6766 22.8421C13.012 23.7249 13.651 24.3711 14.5934 24.7805" fill="none" opacity="1" stroke="#3b464c" stroke-linecap="round" stroke-linejoin="round" stroke-width="2.5515"/>
<path d="M215.274 33.6959C215.077 33.7081 214.916 33.691 214.791 33.6441C214.706 33.6122 214.617 33.5959 214.525 33.5952C214.432 33.5947 214.307 33.642 214.15 33.7376C213.993 33.8332 213.833 33.9591 213.67 34.1151C213.507 34.271 213.34 34.4538 213.17 34.6636C212.999 34.8733 212.883 35.0366 212.82 35.1534C212.758 35.2702 212.705 35.4249 212.663 35.6175C212.621 35.8101 212.601 36.0781 212.605 36.4215C212.608 36.765 212.646 37.0377 212.719 37.2395C212.792 37.4414 212.888 37.6301 213.008 37.8056C213.127 37.9811 213.241 38.1223 213.35 38.2289C213.458 38.3356 213.618 38.4572 213.827 38.5936C214.036 38.7301 214.214 38.8324 214.359 38.9007C214.505 38.9689 214.688 39.0296 214.909 39.0828C215.131 39.136 215.329 39.1612 215.505 39.1582C215.681 39.1549 215.836 39.1047 215.97 39.0067C216.104 38.9086 216.237 38.7584 216.369 38.5562C216.501 38.3539 216.615 38.1456 216.71 37.9312C216.805 37.7168 216.875 37.5325 216.921 37.3785C216.967 37.2244 217.014 37.0278 217.061 36.7887C217.108 36.5497 217.138 36.1924 217.148 35.7169C217.159 35.2413 217.148 34.9251 217.114 34.7683C217.081 34.6115 217.025 34.4547 216.946 34.2978C216.868 34.1408 216.741 33.9753 216.565 33.8012C216.39 33.6272 216.258 33.5126 216.169 33.4575C216.08 33.4026 215.977 33.3606 215.859 33.3316C215.741 33.3027 215.605 33.2845 215.45 33.2771C215.296 33.2697 215.129 33.2773 214.952 33.3C214.774 33.3227 214.595 33.3663 214.415 33.4308C214.235 33.4953 214.068 33.5637 213.912 33.636C213.757 33.7083 213.622 33.7988 213.507 33.9075C213.393 34.0163 213.322 34.1661 213.292 34.3568C213.263 34.5476 213.248 34.8336 213.247 35.2149C213.247 35.5963 213.27 35.926 213.318 36.2042C213.366 36.4824 213.445 36.7707 213.553 37.069C213.662 37.3674 213.793 37.6243 213.947 37.8399C214.1 38.0555 214.27 38.2309 214.457 38.3661C214.644 38.5012 214.842 38.59 215.051 38.6324C215.26 38.6748 215.442 38.6958 215.597 38.6955C215.752 38.6953 215.925 38.6353 216.116 38.5155C216.307 38.3957 216.445 38.2923 216.532 38.2053C216.618 38.1183 216.735 37.9578 216.883 37.7238C217.03 37.4898 217.137 37.2694 217.202 37.0629C217.267 36.8563 217.327 36.5998 217.381 36.2932C217.436 35.9867 217.468 35.6806 217.479 35.375C217.489 35.0692 217.436 34.7943 217.317 34.55C217.199 34.3057 217.041 34.0978 216.844 33.9264C216.646 33.755 216.433 33.6346 216.205 33.5652C215.976 33.4957 215.762 33.467 215.563 33.479C215.363 33.491 215.18 33.5499 215.012 33.6557C214.844 33.7615 214.583 34.0048 214.23 34.3857C213.876 34.7666 213.602 35.1022 213.407 35.3925C213.213 35.6828 213.08 35.9348 213.011 36.1483C212.941 36.3619 212.924 36.5984 212.96 36.8578C212.996 37.1172 213.144 37.3379 213.404 37.5198C213.665 37.7018 213.977 37.833 214.34 37.9134C214.704 37.9938 215.021 38.038 215.29 38.0461C215.56 38.0541 215.78 38.0324 215.95 37.9809C216.12 37.9294 216.272 37.856 216.407 37.7607C216.542 37.6653 216.662 37.5534 216.766 37.4248C216.871 37.2963 216.966 37.1593 217.053 37.0139C217.14 36.8684 217.209 36.7217 217.261 36.5737C217.313 36.4257 217.364 36.1992 217.415 35.8941C217.465 35.589 217.492 35.3431 217.494 35.1566C217.496 34.97 217.428 34.7772 217.29 34.5782C217.151 34.3792 216.956 34.2175 216.705 34.0929C216.453 33.9684 216.201 33.895 215.947 33.8726C215.694 33.8503 215.466 33.9024 215.264 34.0291C215.062 34.1559 214.897 34.3486 214.768 34.6075C214.639 34.8663 214.544 35.1467 214.483 35.4485C214.422 35.7503 214.386 36.1126 214.375 36.5353C214.364 36.9579 214.377 37.239 214.414 37.3784C214.452 37.5178 214.504 37.6491 214.57 37.7721C214.636 37.8952 214.731 38.0102 214.856 38.1172C214.981 38.2242 215.152 38.302 215.369 38.3505C215.587 38.3991 215.825 38.3902 216.084 38.3238C216.344 38.2574 216.584 38.1118 216.806 37.8869C217.028 37.6621 217.212 37.4054 217.357 37.1169C217.502 36.8284 217.597 36.5317 217.64 36.2269C217.683 35.9222 217.69 35.6765 217.66 35.4901C217.631 35.3035 217.572 35.1627 217.483 35.0674C217.395 34.9721 217.291 34.8912 217.174 34.8249C217.056 34.7586 216.922 34.7126 216.773 34.687C216.623 34.6615 216.432 34.6452 216.197 34.6381C215.963 34.631 215.751 34.6506 215.562 34.6968C215.372 34.743 215.225 34.8134 215.121 34.9083C215.016 35.0031 214.909 35.1458 214.798 35.3365C214.688 35.5273 214.603 35.7819 214.544 36.1003C214.485 36.4188 214.469 36.7076 214.497 36.9666C214.537 37.3377 214.881 37.6158 215.529 37.8009" fill="none" opacity="1" stroke="#72afa9" stroke-linecap="round" stroke-linejoin="round" stroke-width="2.5515"/>
<path d="M32.8875 129.811C32.9061 129.674 32.8536 129.59 32.7302 129.558C32.6435 129.535 32.4935 129.584 32.2803 129.703C32.0671 129.823 31.9027 129.923 31.7872 130.004C31.6718 130.085 31.5512 130.197 31.4256 130.342C31.3 130.487 31.1699 130.662 31.0354 130.869C30.9008 131.076 30.7899 131.298 30.7029 131.535C30.6158 131.773 30.5493 132.007 30.5036 132.238C30.4578 132.469 30.4344 132.653 30.4333 132.791C30.4322 132.929 30.4558 133.054 30.504 133.167C30.5522 133.279 30.6285 133.377 30.733 133.46C30.8375 133.544 30.9633 133.622 31.1103 133.695C31.2572 133.768 31.412 133.829 31.5745 133.878C31.7371 133.927 31.8948 133.954 32.0476 133.958C32.2003 133.963 32.3469 133.947 32.4873 133.909C32.6277 133.872 32.7862 133.781 32.9628 133.638C33.1393 133.494 33.2773 133.343 33.3766 133.184C33.4759 133.025 33.5525 132.879 33.6066 132.745C33.6606 132.611 33.6997 132.458 33.724 132.286C33.7483 132.115 33.7637 131.945 33.7703 131.777C33.7769 131.609 33.7557 131.441 33.7067 131.272C33.6577 131.104 33.5909 130.932 33.5064 130.756C33.4219 130.581 33.3263 130.414 33.2196 130.256C33.1129 130.098 33.003 129.951 32.89 129.814C32.7769 129.677 32.6398 129.548 32.4788 129.429C32.3178 129.309 32.1459 129.224 31.9631 129.175C31.7803 129.125 31.6263 129.104 31.5009 129.11C31.3755 129.116 31.2831 129.151 31.2235 129.216C31.1639 129.281 31.1047 129.36 31.046 129.453C30.9873 129.547 30.9344 129.659 30.8871 129.789C30.8399 129.92 30.8098 130.064 30.7968 130.221C30.7838 130.378 30.7924 130.562 30.8219 130.775C30.8516 130.988 30.9228 131.186 31.0354 131.37C31.1479 131.555 31.2574 131.707 31.3639 131.828C31.4702 131.948 31.5815 132.05 31.6976 132.134C31.8138 132.218 31.9948 132.308 32.2408 132.403C32.4868 132.498 32.7531 132.54 33.04 132.528C33.3269 132.517 33.5464 132.444 33.6988 132.31C33.8511 132.176 33.9737 132.009 34.0668 131.809C34.1598 131.609 34.2358 131.38 34.2947 131.121C34.3537 130.863 34.3918 130.605 34.4091 130.349C34.4263 130.092 34.4113 129.849 34.3631 129.618C34.3152 129.388 34.2227 129.178 34.0855 128.989C33.9483 128.8 33.8078 128.652 33.6637 128.544C33.5197 128.437 33.3954 128.362 33.2911 128.318C33.1867 128.274 33.0369 128.239 32.8416 128.214C32.6462 128.189 32.5118 128.183 32.4383 128.198C32.3647 128.213 32.2923 128.248 32.2208 128.301C32.1494 128.355 32.0738 128.444 31.9943 128.567C31.9147 128.69 31.8291 128.866 31.7374 129.094C31.6457 129.322 31.5782 129.586 31.5349 129.885C31.4916 130.185 31.4791 130.51 31.4976 130.861C31.516 131.212 31.5814 131.526 31.694 131.804C31.8064 132.081 31.9138 132.293 32.0161 132.438C32.1183 132.584 32.2216 132.703 32.326 132.797C32.4303 132.891 32.5373 132.97 32.647 133.037C32.7568 133.103 32.8833 133.145 33.0266 133.163C33.1699 133.181 33.3093 133.182 33.4446 133.165C33.5799 133.148 33.725 133.065 33.8798 132.917C34.0346 132.769 34.1785 132.559 34.3117 132.287C34.4448 132.015 34.5307 131.761 34.5695 131.524C34.6083 131.287 34.6224 131.061 34.6119 130.844C34.6013 130.627 34.5287 130.428 34.3942 130.247C34.2598 130.067 34.0912 129.894 33.8885 129.728C33.6858 129.561 33.4968 129.428 33.3214 129.328C33.146 129.228 32.9942 129.151 32.866 129.096C32.7378 129.04 32.5954 128.998 32.4389 128.97C32.2823 128.941 32.13 128.93 31.982 128.935C31.8339 128.94 31.7163 128.965 31.6292 129.011C31.5419 129.057 31.4506 129.133 31.355 129.239C31.2594 129.346 31.1784 129.495 31.1122 129.685C31.0459 129.875 31.0011 130.094 30.9777 130.341C30.9543 130.589 30.9456 130.865 30.9516 131.171C30.9576 131.477 31.0234 131.776 31.1491 132.069C31.2749 132.361 31.418 132.588 31.5784 132.749C31.7389 132.91 31.8804 133.016 32.0029 133.066C32.1255 133.116 32.2864 133.146 32.4856 133.156C32.6849 133.166 32.8923 133.12 33.1078 133.018C33.3234 132.915 33.5123 132.78 33.6744 132.614C33.8364 132.447 33.952 132.303 34.0211 132.182C34.0902 132.061 34.1634 131.897 34.2407 131.69C34.318 131.483 34.3708 131.268 34.3991 131.045C34.4275 130.821 34.4281 130.609 34.4007 130.409C34.3736 130.208 34.2868 130.037 34.1403 129.897C33.9938 129.756 33.8052 129.65 33.5744 129.579C33.3437 129.508 33.0952 129.466 32.8291 129.451C32.563 129.436 32.3427 129.448 32.1682 129.488C31.9937 129.528 31.8579 129.577 31.7608 129.634C31.6638 129.692 31.5733 129.776 31.4894 129.887C31.4055 129.998 31.3473 130.107 31.3149 130.213C31.2685 130.365 31.3847 130.584 31.6636 130.87" fill="none" opacity="1" stroke="#72afa9" stroke-linecap="round" stroke-linejoin="round" stroke-width="2.5515"/>
<path d="M75.7012 90.9971C75.9074 90.9922 76.0261 90.8861 76.0575 90.6794C76.0794 90.5348 76.0186 90.4672 75.875 90.4766C75.7314 90.4861 75.5628 90.6531 75.369 90.9776C75.1752 91.3022 75.0663 91.7467 75.0423 92.3112C75.0184 92.8756 75.0698 93.2823 75.1967 93.5313C75.3236 93.7803 75.5224 93.9868 75.7933 94.1509C76.0641 94.3149 76.3824 94.3938 76.7481 94.3874C77.1139 94.381 77.4031 94.2337 77.6158 93.9455C77.8285 93.6573 77.9596 93.2294 78.0089 92.6618C78.0583 92.0942 78.0138 91.717 77.8758 91.53C77.7377 91.3431 77.5705 91.1998 77.3741 91.1001C77.1776 91.0005 76.9122 90.9392 76.5776 90.9162C76.243 90.8932 75.9559 90.9462 75.7161 91.0753C75.4763 91.2044 75.2715 91.3766 75.1016 91.5921C74.9317 91.8076 74.8048 92.0735 74.7209 92.3898C74.637 92.7062 74.5942 93.0362 74.5925 93.3797C74.5908 93.7234 74.6638 93.9845 74.8117 94.1633C74.9596 94.342 75.2032 94.4688 75.5423 94.5436C75.8814 94.6183 76.23 94.608 76.5882 94.5126C76.9464 94.4173 77.2646 94.1854 77.5429 93.8171C77.8211 93.4487 78.0261 93.0328 78.1578 92.5694C78.2895 92.1059 78.35 91.6287 78.3393 91.1377C78.3286 90.6467 78.1951 90.2991 77.9387 90.0949C77.6823 89.8907 77.3888 89.7529 77.0582 89.6815C76.7275 89.6101 76.3465 89.5963 75.915 89.6402C75.4835 89.6841 75.2007 89.8189 75.0665 90.0445C74.9324 90.27 74.8523 90.5604 74.8263 90.9154C74.8003 91.2706 74.8268 91.6223 74.9061 91.9707C74.9854 92.3191 75.1502 92.6026 75.4006 92.8212C75.6509 93.0398 75.9734 93.1732 76.3681 93.2213C76.7627 93.2694 77.0832 93.2002 77.3296 93.0136C77.576 92.827 77.746 92.6341 77.8395 92.4349C77.933 92.2357 78.0042 91.7854 78.0529 91.084C78.1015 90.3825 78.074 89.9054 77.9703 89.6525C77.8665 89.3997 77.6537 89.1742 77.3316 88.9761C77.0095 88.778 76.6482 88.657 76.2476 88.6131C75.847 88.5692 75.4819 88.6142 75.1522 88.7474C74.8225 88.8809 74.5719 89.1162 74.4004 89.4533C74.2289 89.7905 74.1329 90.2892 74.1125 90.9496C74.092 91.6099 74.1726 92.0634 74.354 92.3101C74.6207 92.6726 75.0309 92.9649 75.5848 93.187" fill="none" opacity="1" stroke="#72afa9" stroke-linecap="round" stroke-linejoin="round" stroke-width="2.5515"/>
<path d="M129.731 90.9823C129.821 90.5368 129.759 90.2737 129.546 90.1931C129.397 90.1363 129.227 90.3216 129.037 90.7489C128.848 91.1763 128.713 91.6822 128.632 92.2666C128.551 92.8511 128.52 93.3389 128.539 93.7301C128.558 94.1212 128.719 94.4064 129.02 94.5856C129.321 94.7647 129.718 94.8566 130.211 94.8614C130.703 94.8663 131.154 94.7485 131.562 94.5083C131.97 94.2681 132.299 94.0266 132.547 93.7839C132.796 93.541 133.047 93.1767 133.299 92.691C133.552 92.2053 133.7 91.7651 133.744 91.3704C133.788 90.9756 133.69 90.6602 133.449 90.4241C133.208 90.188 132.743 90.0563 132.055 90.0289C131.366 90.0014 130.862 90.0692 130.544 90.2321C130.225 90.3951 129.97 90.5657 129.777 90.7439C129.585 90.9221 129.456 91.112 129.389 91.3136C129.323 91.5152 129.314 91.7125 129.364 91.9055C129.414 92.0985 129.62 92.2556 129.981 92.3768C130.342 92.4981 130.681 92.5598 130.999 92.5621C131.316 92.5643 131.625 92.4654 131.925 92.265C132.225 92.0646 132.505 91.7449 132.764 91.3057C133.023 90.8666 133.217 90.4567 133.345 90.0762C133.474 89.6957 133.555 89.2676 133.59 88.792C133.625 88.3164 133.569 87.9224 133.421 87.6101C133.273 87.2978 133.002 87.0856 132.606 86.9734C132.21 86.8612 131.78 86.84 131.315 86.9097C130.851 86.9795 130.359 87.1953 129.839 87.5571C129.319 87.919 128.945 88.2716 128.716 88.6148C128.486 88.9579 128.341 89.3859 128.279 89.8986C128.217 90.4114 128.216 90.7457 128.276 90.9015C128.336 91.0574 128.477 91.223 128.701 91.3983C128.924 91.5736 129.232 91.717 129.626 91.8286C130.02 91.9403 130.41 92.0016 130.796 92.0128C131.181 92.0239 131.537 91.9371 131.862 91.7522C132.187 91.5674 132.455 91.246 132.666 90.7881C132.877 90.3302 132.986 89.9324 132.993 89.5946C133 89.2567 132.937 88.9985 132.805 88.8199C132.672 88.6413 132.497 88.5436 132.279 88.5269C132.062 88.5101 131.786 88.6158 131.453 88.8438C130.972 89.1727 130.489 90.025 130.004 91.4009" fill="none" opacity="1" stroke="#72afa9" stroke-linecap="round" stroke-linejoin="round" stroke-width="2.5515"/>
<path d="M173.8 46.3693C172.941 46.1096 172.383 46.2188 172.125 46.6968C171.944 47.0323 171.821 47.4128 171.755 47.8383C171.689 48.2638 171.653 48.6882 171.646 49.1114C171.64 49.5346 171.728 49.9053 171.909 50.2233C172.091 50.5412 172.33 50.7621 172.625 50.8858C172.921 51.0095 173.251 51.0491 173.618 51.0046C173.984 50.96 174.301 50.8141 174.567 50.5668C174.834 50.3195 175.091 49.9658 175.34 49.5056C175.589 49.0454 175.75 48.5893 175.823 48.1373C175.896 47.6853 175.916 47.2541 175.883 46.844C175.85 46.4338 175.693 46.1606 175.412 46.0242C175.132 45.8878 174.805 45.8073 174.43 45.7827C174.056 45.7582 173.694 45.7849 173.345 45.8636C172.996 45.9421 172.723 46.0717 172.528 46.2524C172.333 46.4331 172.205 46.7854 172.145 47.3094C172.084 47.8334 172.155 48.2325 172.357 48.5069C172.56 48.7812 172.85 48.9694 173.228 49.0715C173.606 49.1736 173.932 49.22 174.207 49.211C174.481 49.202 174.764 49.0756 175.056 48.8319C175.348 48.5881 175.573 48.2703 175.731 47.8783C175.889 47.4864 175.987 47.1089 176.025 46.7459C176.063 46.3829 176.015 46.0794 175.88 45.8352C175.745 45.5911 175.498 45.4229 175.138 45.3306C174.778 45.2384 174.429 45.1872 174.091 45.1771C173.752 45.1669 173.389 45.257 173.002 45.4475C172.614 45.638 172.278 45.9317 171.993 46.3288C171.708 46.7258 171.551 47.1161 171.521 47.4997C171.479 48.0448 171.807 48.3801 172.505 48.5055" fill="none" opacity="1" stroke="#72afa9" stroke-linecap="round" stroke-linejoin="round" stroke-width="2.5515"/>
<path d="M31.6873 147.467C31.4287 147.445 31.4468 147.677 31.7415 148.162C32.0362 148.648 32.3897 149.313 32.802 150.158C33.2143 151.002 33.5611 151.81 33.8423 152.579C34.1237 153.349 34.2896 154.02 34.34 154.591C34.4152 155.441 34.2703 155.972 33.9054 156.184" fill="none" opacity="1" stroke="#72afa9" stroke-linecap="round" stroke-linejoin="round" stroke-width="2.5515"/>
<path d="M61.8639 84.352C61.4679 84.7004 61.248 84.7451 61.204 84.4864C61.1724 84.3005 61.2933 83.8821 61.5666 83.2309C61.84 82.5797 62.1669 81.9369 62.5473 81.3024C62.9278 80.6678 63.2832 80.1842 63.6139 79.8515C63.9444 79.5187 64.1978 79.4204 64.374 79.5567C64.5501 79.6929 64.6983 80.0414 64.8183 80.602C64.9383 81.1626 65.0052 81.7342 65.0189 82.3168C65.0326 82.8993 64.9927 83.4269 64.8992 83.8996C64.8057 84.3723 64.6074 85.0572 64.3042 85.9545C64.0009 86.8517 63.8091 87.4742 63.7285 87.822C63.6479 88.1698 63.6036 88.4355 63.5955 88.6191C63.5875 88.8026 63.725 88.9178 64.0081 88.9644C64.2912 89.0111 64.6207 88.993 64.9966 88.9101C65.5374 88.7908 66.6298 88.2799 68.2737 87.3772" fill="none" opacity="1" stroke="#72afa9" stroke-linecap="round" stroke-linejoin="round" stroke-width="2.5515"/>
<path d="M117.246 78.5451C116.976 78.1548 117.007 77.8591 117.336 77.6579C117.57 77.5152 117.907 77.3503 118.346 77.1632C118.784 76.9761 119.29 76.7904 119.862 76.6062C120.434 76.4219 120.86 76.3265 121.138 76.3198C121.416 76.3131 121.512 76.5493 121.423 77.0284C121.335 77.5075 121.212 77.9932 121.055 78.4852C120.898 78.9772 120.798 79.4448 120.758 79.8878C120.717 80.3308 120.828 80.7178 121.091 81.0487C121.355 81.3796 121.725 81.6546 122.202 81.8737C122.678 82.0928 123.102 82.2356 123.474 82.3024C123.847 82.3691 124.055 82.4064 124.099 82.4143C124.143 82.4222 124.14 82.4307 124.092 82.4397C124.043 82.4487 123.813 82.4913 123.402 82.5675C122.991 82.6437 122.343 82.7925 121.46 83.0139C120.577 83.2352 119.828 83.4662 119.213 83.7066C118.599 83.9471 118.137 84.1607 117.828 84.3472C117.519 84.5338 117.286 84.7508 117.13 84.9981" fill="none" opacity="1" stroke="#72afa9" stroke-linecap="round" stroke-linejoin="round" stroke-width="2.5515"/>
<path d="M185.106 61.2123C184.837 60.8733 184.522 60.6849 184.159 60.6469C183.912 60.6209 183.484 60.7312 182.875 60.9775C182.267 61.2239 181.654 61.4889 181.036 61.7726C180.419 62.0563 179.739 62.3851 178.997 62.7592C178.256 63.1332 177.302 63.658 176.138 64.3335C174.974 65.009 174.254 65.3952 173.979 65.492C173.704 65.5888 173.557 65.4812 173.538 65.1691C173.519 64.8571 173.623 64.3731 173.848 63.7174C174.073 63.0617 174.501 61.9991 175.13 60.5299C175.76 59.0607 176.155 58.1271 176.317 57.729C176.478 57.331 176.571 57.1031 176.594 57.0455C176.618 56.9879 176.629 56.9822 176.629 57.0284C176.629 57.0748 176.63 57.2577 176.63 57.5774C176.63 57.897 176.713 58.4458 176.881 59.2238C177.048 60.0018 177.225 60.7516 177.411 61.4731C177.597 62.1946 177.791 62.9886 177.993 63.8549C178.194 64.7212 178.369 65.5325 178.518 66.2886C178.667 67.0447 178.806 67.6982 178.933 68.2489C179.11 69.0164 179.568 69.2051 180.305 68.815" fill="none" opacity="1" stroke="#72afa9" stroke-linecap="round" stroke-linejoin="round" stroke-width="2.5515"/>
<path d="M219.753 50.1768C220.418 49.3547 220.764 48.8083 220.791 48.5375C220.81 48.3485 220.68 48.2452 220.401 48.2276C220.122 48.21 219.708 48.2813 219.161 48.4415C218.614 48.6016 218.006 48.8625 217.337 49.2242C216.668 49.5859 216.088 49.9687 215.596 50.3724C215.104 50.7761 214.77 51.1843 214.593 51.5969C214.417 52.0096 214.429 52.3391 214.631 52.5857C214.832 52.8322 215.105 53.0247 215.449 53.1632C215.793 53.3017 216.388 53.4636 217.236 53.6488C218.083 53.834 219.04 54.0703 220.107 54.3577C221.174 54.6451 221.838 54.8489 222.098 54.969C222.359 55.0892 222.512 55.2227 222.558 55.3696C222.604 55.5165 222.181 55.7842 221.29 56.1727C220.398 56.5611 219.601 56.8901 218.898 57.1597C218.195 57.4292 217.491 57.7147 216.786 58.0162C216.081 58.3178 215.496 58.568 215.031 58.7669" fill="none" opacity="1" stroke="#72afa9" stroke-linecap="round" stroke-linejoin="round" stroke-width="2.5515"/>
<path d="M215.745 33.7981C215.413 33.1754 215.109 32.8233 214.832 32.7416C214.639 32.6849 214.453 32.6729 214.274 32.7057C214.094 32.7385 213.849 32.8584 213.54 33.0653C213.23 33.2722 212.952 33.5279 212.705 33.8326C212.458 34.1372 212.283 34.3941 212.18 34.6031C212.078 34.8122 212.009 35.0234 211.975 35.2366C211.941 35.4498 211.921 35.7556 211.918 36.1541C211.914 36.5525 211.977 36.8835 212.107 37.1471C212.237 37.4106 212.381 37.6176 212.538 37.7681C212.696 37.9186 212.867 38.057 213.052 38.1835C213.237 38.3099 213.423 38.4161 213.61 38.502C213.798 38.5879 214.002 38.655 214.223 38.7033C214.444 38.7516 214.746 38.7784 215.128 38.7836C215.511 38.7891 215.799 38.7588 215.994 38.693C216.189 38.6273 216.423 38.4742 216.696 38.2337C216.969 37.9932 217.213 37.6698 217.428 37.2635C217.643 36.8572 217.78 36.5161 217.841 36.2401C217.901 35.9642 217.943 35.7041 217.967 35.4598C217.99 35.2155 217.995 34.985 217.979 34.7683C217.964 34.5515 217.884 34.3165 217.739 34.0631C217.594 33.8097 217.403 33.5671 217.167 33.3352C216.93 33.1034 216.714 32.9204 216.518 32.7861C216.323 32.6519 216.091 32.5403 215.823 32.4513C215.556 32.3624 215.275 32.3158 214.98 32.3117C214.685 32.3079 214.457 32.3262 214.298 32.3673C214.138 32.4085 213.901 32.5491 213.587 32.7891C213.272 33.0291 212.995 33.2893 212.755 33.5697C212.514 33.85 212.317 34.149 212.161 34.4667C212.005 34.7844 211.912 35.1237 211.88 35.4845C211.848 35.8454 211.837 36.095 211.845 36.2334C211.857 36.4311 212.195 36.825 212.858 37.4153" fill="none" opacity="1" stroke="#72afa9" stroke-linecap="round" stroke-linejoin="round" stroke-width="4.2525"/>
<path d="M174.466 44.2301C174.227 43.9882 173.885 43.8565 173.44 43.835C172.996 43.8135 172.655 43.8535 172.418 43.9548C172.181 44.0562 171.92 44.2111 171.635 44.4194C171.351 44.6278 171.091 44.8556 170.857 45.1026C170.623 45.3497 170.44 45.6239 170.309 45.9254C170.177 46.2268 170.096 46.5239 170.065 46.8166C170.034 47.1093 170.021 47.5309 170.027 48.0817C170.032 48.6324 170.068 48.9822 170.135 49.131C170.201 49.2799 170.302 49.4342 170.436 49.5941C170.57 49.754 170.72 49.8938 170.887 50.0136C171.055 50.1334 171.333 50.2431 171.723 50.3428C172.113 50.4425 172.567 50.4945 173.086 50.4988C173.605 50.5032 173.994 50.4629 174.253 50.3779C174.512 50.293 174.797 50.1599 175.107 49.9785C175.418 49.7972 175.653 49.5834 175.814 49.337C175.975 49.0906 176.094 48.7333 176.171 48.2652C176.248 47.7972 176.288 47.2882 176.292 46.7386C176.295 46.189 176.249 45.8086 176.155 45.5974C176.061 45.3863 175.883 45.1694 175.623 44.9467C175.362 44.7241 175.073 44.5142 174.755 44.3171C174.437 44.1201 174.134 43.9901 173.844 43.9272C173.555 43.8643 173.303 43.8321 173.087 43.8306C172.774 43.8284 172.556 43.9713 172.433 44.2594" fill="none" opacity="1" stroke="#72afa9" stroke-linecap="round" stroke-linejoin="round" stroke-width="4.2525"/>
<path d="M132.217 89.8411C132.268 89.006 132.214 88.4906 132.055 88.2948C131.944 88.1582 131.81 88.0565 131.654 87.9899C131.498 87.9233 131.336 87.8899 131.167 87.8897C130.997 87.8895 130.743 87.9619 130.405 88.1068C130.066 88.2517 129.781 88.4236 129.548 88.6223C129.316 88.821 129.093 89.0608 128.882 89.3416C128.67 89.6224 128.478 89.9439 128.306 90.306C128.135 90.6681 128.019 90.9829 127.961 91.2503C127.902 91.5177 127.872 91.8063 127.871 92.116C127.87 92.4257 127.92 92.7349 128.019 93.0436C128.119 93.3523 128.274 93.6864 128.484 94.046C128.693 94.4056 128.876 94.6463 129.033 94.7681C129.189 94.8898 129.413 94.9918 129.705 95.074C129.996 95.1563 130.357 95.2029 130.787 95.2139C131.218 95.2249 131.57 95.1963 131.843 95.1281C132.117 95.06 132.369 94.9681 132.6 94.8524C132.831 94.7367 133.042 94.6128 133.235 94.4806C133.427 94.3485 133.614 94.1995 133.796 94.0337C133.977 93.8678 134.197 93.6025 134.453 93.2377C134.71 92.8728 134.884 92.5676 134.975 92.3219C135.067 92.0762 135.113 91.7704 135.115 91.4048C135.116 91.0391 135.091 90.7402 135.04 90.508C134.989 90.2759 134.911 90.0453 134.806 89.8162C134.702 89.587 134.559 89.3705 134.379 89.1667C134.198 88.9627 133.955 88.7991 133.648 88.6757C133.342 88.5523 132.988 88.4491 132.585 88.3661C132.183 88.283 131.834 88.2405 131.538 88.2385C131.242 88.2363 130.984 88.2808 130.765 88.3718C130.545 88.4628 130.345 88.5918 130.162 88.7589C129.895 89.003 129.804 89.2686 129.886 89.5557" fill="none" opacity="1" stroke="#72afa9" stroke-linecap="round" stroke-linejoin="round" stroke-width="4.2525"/>
<path d="M77.4299 90.1641C77.2666 89.98 76.8147 89.8735 76.0743 89.8447C75.6066 89.8266 75.2442 89.8656 74.9873 89.9618C74.7304 90.058 74.5045 90.1769 74.3096 90.3186C74.1147 90.4603 73.9148 90.6355 73.7098 90.8443C73.5048 91.0531 73.34 91.2833 73.2156 91.5351C73.0911 91.7869 72.999 92.0659 72.9394 92.3721C72.8797 92.6783 72.8494 92.9917 72.8484 93.3124C72.8473 93.6331 72.8588 93.88 72.883 94.0532C72.9071 94.2263 72.9643 94.3941 73.0546 94.5564C73.1449 94.7187 73.2637 94.8766 73.4111 95.0302C73.5585 95.1838 73.7318 95.3202 73.931 95.4393C74.1302 95.5584 74.3364 95.6522 74.5496 95.7206C74.7628 95.789 75.1384 95.8312 75.6764 95.8473C76.2144 95.8633 76.6033 95.8462 76.843 95.7956C77.0828 95.7451 77.3993 95.6062 77.7928 95.3789C78.1862 95.1515 78.4826 94.9537 78.6819 94.7857C78.8813 94.6176 79.0678 94.4373 79.2415 94.245C79.4151 94.0527 79.559 93.85 79.673 93.6369C79.787 93.4239 79.8797 93.0992 79.9511 92.6628C80.0225 92.2263 80.0516 91.868 80.0385 91.5879C80.0254 91.3077 79.9724 91.0816 79.8796 90.9093C79.7868 90.7371 79.5965 90.5229 79.3088 90.2666C79.021 90.0103 78.6963 89.816 78.3345 89.6837C77.9727 89.5514 77.7068 89.4786 77.5366 89.4654C77.3664 89.4521 77.2124 89.4692 77.0746 89.5167C76.8774 89.5847 76.7241 89.8876 76.6147 90.4253" fill="none" opacity="1" stroke="#72afa9" stroke-linecap="round" stroke-linejoin="round" stroke-width="4.2525"/>
<path d="M33.6323 128.603C33.4558 128.159 33.2635 127.892 33.0554 127.802C32.9112 127.74 32.6638 127.773 32.3132 127.901C31.9627 128.029 31.685 128.163 31.4803 128.303C31.2755 128.443 31.0313 128.674 30.7474 128.996C30.4636 129.317 30.2373 129.631 30.0684 129.936C29.8995 130.241 29.811 130.563 29.8028 130.901C29.7946 131.24 29.8961 131.549 30.1074 131.829C30.3186 132.11 30.5998 132.376 30.9509 132.629C31.302 132.882 31.5829 133.045 31.7936 133.12C32.0043 133.195 32.3286 133.246 32.7664 133.271C33.2042 133.296 33.531 133.288 33.7465 133.249C33.9622 133.209 34.1942 133.092 34.4426 132.897C34.691 132.702 34.9461 132.405 35.2079 132.004C35.4697 131.604 35.6643 131.257 35.7917 130.963C35.9191 130.669 36.0017 130.28 36.0395 129.798C36.0773 129.315 36.004 128.943 35.8196 128.68C35.6353 128.418 35.4452 128.208 35.2494 128.052C35.0536 127.896 34.7912 127.756 34.4622 127.633C34.1332 127.509 33.8111 127.446 33.496 127.445C33.1809 127.444 32.8979 127.514 32.647 127.655C32.3962 127.797 32.1623 127.998 31.9457 128.259C31.7291 128.52 31.5637 128.799 31.4495 129.095C31.3353 129.391 31.2591 129.689 31.2207 129.987C31.1823 130.285 31.1663 130.624 31.1726 131.003C31.1789 131.383 31.2351 131.681 31.3412 131.896C31.4473 132.112 31.5901 132.307 31.7699 132.481C31.9496 132.655 32.1495 132.803 32.3695 132.926C32.5895 133.049 32.8105 133.132 33.0323 133.177C33.2542 133.221 33.4993 133.242 33.7677 133.239C34.0361 133.236 34.2338 133.175 34.3605 133.055C34.4873 132.934 34.6233 132.742 34.7686 132.477C34.914 132.212 35.0582 131.867 35.2013 131.442C35.3444 131.017 35.444 130.559 35.5002 130.067C35.5563 129.575 35.5733 129.235 35.5513 129.046C35.5292 128.857 35.3805 128.663 35.1051 128.464C34.8297 128.265 34.4795 128.081 34.0544 127.911C33.6294 127.741 33.3207 127.626 33.1284 127.564C32.9361 127.503 32.6602 127.468 32.3007 127.458C31.9412 127.448 31.6672 127.464 31.4787 127.503C31.2902 127.542 31.0833 127.653 30.8581 127.835C30.6329 128.017 30.4366 128.273 30.2692 128.605C30.1019 128.936 29.9899 129.264 29.9333 129.589C29.8767 129.913 29.8477 130.178 29.8465 130.384C29.8454 130.589 29.9006 130.795 30.0126 131.002C30.1246 131.209 30.3692 131.497 30.7463 131.868C31.1234 132.239 31.4015 132.489 31.5807 132.619C31.7598 132.748 31.9428 132.851 32.1298 132.929C32.3169 133.006 32.5928 133.049 32.9574 133.058C33.3221 133.068 33.5625 133.005 33.6786 132.87C33.7948 132.736 33.8997 132.556 33.9933 132.332C34.0869 132.107 34.164 131.815 34.2247 131.455C34.2854 131.096 34.3171 130.841 34.3198 130.69C34.3226 130.54 34.2879 130.413 34.2157 130.311C34.112 130.165 33.8239 130.065 33.3513 130.013" fill="none" opacity="1" stroke="#72afa9" stroke-linecap="round" stroke-linejoin="round" stroke-width="4.2525"/>
</g>
</svg>
