<?xml version="1.0" encoding="UTF-8" standalone="no"?>
<!DOCTYPE svg PUBLIC "-//W3C//DTD SVG 1.1//EN" "http://www.w3.org/Graphics/SVG/1.1/DTD/svg11.dtd">
<!-- Created with Vectornator (http://vectornator.io/) -->
<svg height="100%" stroke-miterlimit="10" style="fill-rule:nonzero;clip-rule:evenodd;stroke-linecap:round;stroke-linejoin:round;" version="1.1" viewBox="0 0 338.553 208.377" width="100%" xml:space="preserve" xmlns="http://www.w3.org/2000/svg" xmlns:xlink="http://www.w3.org/1999/xlink">
<defs/>
<clipPath id="ArtboardFrame">
<rect height="208.377" width="338.553" x="0" y="0"/>
</clipPath>
<g clip-path="url(#ArtboardFrame)" id="g17">
<path d="M31.1879 10.1201C30.8453 9.22282 30.8453 9.22282 30.5026 8.32554C32.6423 66.5384 28.2227 119.621 24.7916 178.606C24.4223 184.955 24.0777 183.992 26.9859 186.579" fill="none" opacity="1" stroke="#3b464c" stroke-linecap="round" stroke-linejoin="round" stroke-width="3.40158"/>
<path d="M21.4478 17.2626C22.0677 17.0433 22.755 16.4938 23.5099 15.6143C24.2648 14.7348 25.1029 13.5754 26.0243 12.1361C26.9456 10.6968 27.9004 9.09187 28.8887 7.32133C29.877 5.55078 30.5918 4.23551 31.0333 3.37558C31.4747 2.51566 31.7395 1.99973 31.8278 1.82773C31.9161 1.65573 31.9621 1.65907 31.9659 1.83762C31.9696 2.01616 31.9811 2.5518 32 3.4446C32.019 4.3374 32.1379 5.1214 32.3565 5.79667C32.5751 6.47187 33.1001 7.71617 33.9315 9.52962C34.7629 11.343 35.6651 13.1528 36.6382 14.959C37.6114 16.7652 38.2789 17.8857 38.641 18.3205C39.1702 18.9561 39.8197 19.2154 40.5896 19.0983" fill="none" opacity="1" stroke="#3b464c" stroke-linecap="round" stroke-linejoin="round" stroke-width="3.40158"/>
<path d="M323.96 163.685C323.871 163.447 323.673 163.262 323.366 163.13C323.058 162.998 322.913 163.009 322.929 163.164C322.945 163.318 323.109 163.54 323.421 163.83C323.732 164.119 324.177 164.439 324.755 164.789C325.334 165.139 326.129 165.639 327.142 166.29C328.155 166.941 328.975 167.456 329.602 167.835C330.228 168.214 330.827 168.586 331.399 168.952C331.97 169.317 332.53 169.695 333.078 170.085C333.627 170.475 334.143 170.872 334.627 171.274C335.111 171.677 335.491 172.003 335.765 172.252C336.039 172.501 336.283 172.764 336.497 173.04C336.711 173.316 336.832 173.526 336.861 173.669C336.89 173.812 336.776 173.913 336.519 173.971C336.263 174.029 335.914 174.154 335.472 174.345C335.03 174.537 334.32 174.911 333.343 175.466C332.366 176.021 331.046 176.758 329.385 177.677C327.723 178.597 326.516 179.286 325.762 179.745C325.007 180.204 324.699 180.459 324.837 180.509C325.033 180.582 325.687 180.457 326.798 180.135" fill="none" opacity="1" stroke="#3b464c" stroke-linecap="round" stroke-linejoin="round" stroke-width="3.40158"/>
<path d="M318.752 189.609C318.519 189.512 318.341 189.348 318.219 189.116C318.136 188.959 318.087 188.866 318.07 188.835C318.054 188.805 318.044 188.834 318.04 188.922C318.035 189.01 318.022 189.28 317.999 189.733C317.976 190.185 317.943 190.647 317.9 191.119C317.857 191.591 317.776 192.828 317.658 194.831C317.54 196.834 317.479 198.402 317.474 199.536C317.47 200.671 317.481 201.5 317.508 202.025C317.536 202.55 317.588 203.039 317.665 203.491C317.742 203.944 317.829 204.347 317.926 204.7C318.022 205.054 318.13 205.33 318.249 205.53C318.369 205.729 318.594 205.956 318.925 206.209C319.256 206.461 319.573 206.608 319.877 206.648C320.181 206.688 320.477 206.685 320.763 206.64C321.05 206.595 321.538 206.374 322.227 205.98C322.916 205.585 323.76 205.115 324.757 204.57C325.754 204.026 326.542 203.391 327.121 202.667" fill="none" opacity="1" stroke="#3b464c" stroke-linecap="round" stroke-linejoin="round" stroke-width="3.40158"/>
<path d="M314.682 197.276C314.495 197.249 314.491 197.207 314.669 197.151C314.802 197.11 315.135 197.005 315.667 196.839C316.2 196.672 316.967 196.427 317.97 196.103C318.972 195.779 320.48 195.228 322.493 194.449C324.506 193.669 325.787 193.205 326.338 193.057C326.888 192.909 327.255 192.877 327.439 192.961C327.704 193.083 327.818 193.349 327.784 193.759" fill="none" opacity="1" stroke="#3b464c" stroke-linecap="round" stroke-linejoin="round" stroke-width="3.40158"/>
<path d="M8.18345 14.2474C8.17036 13.9842 8.03109 13.843 7.76571 13.8239C7.50033 13.8047 7.09829 13.8765 6.55945 14.039C6.02069 14.2015 5.62796 14.3487 5.38149 14.4808C5.13494 14.6128 4.81749 14.8446 4.42905 15.1761C4.04069 15.5075 3.61307 16.0045 3.14623 16.6667C2.67939 17.329 2.33686 17.9165 2.11866 18.4294C1.90045 18.9422 1.76749 19.3527 1.71979 19.661C1.67208 19.9693 1.72996 20.1728 1.89344 20.2717C2.05691 20.3706 2.32339 20.425 2.69288 20.4349C3.06236 20.4448 3.74295 20.4068 4.73465 20.3209C5.72636 20.2351 6.47734 20.1864 6.98753 20.175C7.49778 20.1637 7.96018 20.2338 8.3748 20.3853C8.78942 20.537 9.15378 20.7543 9.46774 21.0375C9.78178 21.3207 10.0009 21.5749 10.1251 21.8002C10.2493 22.0255 10.3416 22.2201 10.4021 22.3839C10.4627 22.5478 10.4987 22.6855 10.5103 22.797C10.5219 22.9084 10.5052 23.0037 10.4601 23.083C10.415 23.1622 10.0275 23.3723 9.29742 23.7132C8.56738 24.0541 7.81189 24.4005 7.03094 24.7525C6.25 25.1045 5.69087 25.3813 5.35342 25.583C5.01596 25.7847 4.79858 25.9399 4.7012 26.0485C4.60389 26.1571 4.56418 26.2445 4.58214 26.3106C4.60767 26.4041 4.92294 26.4123 5.52811 26.3351" fill="none" opacity="1" stroke="#3b464c" stroke-linecap="round" stroke-linejoin="round" stroke-width="3.40158"/>
<path d="M113.562 179.729C113.478 179.985 113.31 180.047 113.057 179.916C112.805 179.785 112.337 179.274 111.654 178.382" fill="none" opacity="1" stroke="#72afa9" stroke-linecap="round" stroke-linejoin="round" stroke-width="3.40158"/>
<path d="M107.851 176.444C108.694 177.412 109.522 178.396 110.303 179.416C110.875 180.161 111.942 180.303 112.688 179.731C113.433 179.16 113.575 178.093 113.003 177.347C112.797 177.078 112.588 176.812 112.377 176.547C112.096 176.481 111.819 176.381 111.552 176.245C111.552 176.244 111.551 176.244 111.551 176.244C111.542 176.239 111.532 176.233 111.522 176.229C111.511 176.224 111.501 176.218 111.49 176.212C111.489 176.212 111.488 176.211 111.486 176.211C111.437 176.184 111.388 176.157 111.34 176.128C111.26 176.081 111.18 176.035 111.101 175.988C110.754 175.785 110.428 175.548 110.106 175.308C110.091 175.298 110.077 175.288 110.062 175.277C109.79 175.074 109.517 174.871 109.248 174.664C109.094 174.547 108.928 174.446 108.763 174.344C108.555 174.215 108.351 174.08 108.151 173.939C108.104 173.972 108.059 174.007 108.015 174.046C107.307 174.662 107.233 175.736 107.851 176.445L107.851 176.444ZM105.592 173.727C106.302 174.665 107.078 175.557 107.851 176.444C108.467 177.152 109.542 177.226 110.25 176.609C110.511 176.382 110.686 176.092 110.772 175.782C110.544 175.631 110.324 175.47 110.106 175.308C110.091 175.297 110.077 175.287 110.062 175.276C109.79 175.073 109.518 174.87 109.248 174.664C109.094 174.547 108.928 174.445 108.763 174.343C108.307 174.06 107.869 173.749 107.454 173.407C107.438 173.394 107.423 173.381 107.407 173.368C107.14 173.147 106.877 172.919 106.631 172.675C106.357 172.417 106.111 172.121 105.884 171.827C105.816 171.739 105.75 171.649 105.686 171.558C105.147 172.152 105.089 173.064 105.592 173.727ZM103.436 170.632C104.134 171.676 104.832 172.726 105.592 173.727C105.958 174.211 106.556 174.463 107.159 174.387C107.53 174.341 107.869 174.174 108.129 173.922C107.898 173.759 107.673 173.587 107.454 173.407C107.438 173.394 107.423 173.381 107.407 173.368C107.14 173.147 106.877 172.919 106.631 172.675C106.357 172.417 106.111 172.121 105.884 171.827C105.633 171.502 105.411 171.155 105.204 170.8C105.072 170.573 104.942 170.345 104.819 170.113C104.727 169.973 104.684 169.902 104.674 169.88C104.648 169.847 104.621 169.814 104.594 169.781C104.253 169.363 103.952 168.913 103.689 168.443C103.085 169.006 102.968 169.933 103.436 170.632ZM101.163 167.104C101.888 168.301 102.658 169.47 103.436 170.632C103.892 171.314 104.756 171.56 105.487 171.263C105.389 171.111 105.295 170.956 105.204 170.8C105.072 170.573 104.942 170.345 104.819 170.113C104.727 169.973 104.684 169.902 104.674 169.88C104.648 169.847 104.621 169.814 104.594 169.781C104.15 169.236 103.774 168.638 103.46 168.011C103.358 167.807 103.261 167.596 103.141 167.401C103.141 167.4 103.14 167.398 103.139 167.397C103.138 167.396 103.138 167.396 103.138 167.396C102.871 166.958 102.666 166.485 102.479 166.009C102.341 165.657 102.206 165.305 102.087 164.947C102.063 164.891 102.039 164.835 102.011 164.781C101.99 164.741 101.969 164.701 101.949 164.66C101.605 164.807 101.313 165.066 101.127 165.404C100.835 165.937 100.848 166.585 101.163 167.105L101.163 167.104ZM99.1473 163.414C99.7837 164.662 100.438 165.905 101.163 167.104C101.618 167.855 102.561 168.129 103.338 167.764C103.277 167.641 103.213 167.518 103.141 167.401C103.141 167.4 103.14 167.398 103.139 167.397C103.138 167.396 103.138 167.396 103.138 167.396C102.871 166.958 102.666 166.485 102.479 166.009C102.341 165.657 102.206 165.305 102.087 164.947C102.063 164.891 102.039 164.835 102.011 164.781C101.838 164.448 101.676 164.109 101.521 163.768C101.351 163.397 101.19 163.022 101.038 162.643C101.03 162.624 101.023 162.605 101.015 162.586C100.807 162.057 100.643 161.509 100.579 160.944C100.037 160.97 99.5356 161.255 99.2363 161.716C98.9053 162.225 98.8712 162.873 99.1468 163.414L99.1473 163.414ZM97.6913 160.651C98.2208 161.545 98.6761 162.488 99.1473 163.414C99.4237 163.955 99.9669 164.309 100.574 164.34C100.961 164.36 101.336 164.248 101.643 164.032C101.602 163.944 101.561 163.856 101.521 163.768C101.352 163.397 101.19 163.022 101.038 162.643C101.03 162.624 101.023 162.605 101.016 162.586C100.804 162.047 100.637 161.487 100.576 160.911C100.541 160.588 100.524 160.263 100.524 159.939C100.524 159.827 100.524 159.714 100.524 159.602C100.519 159.356 100.539 159.109 100.585 158.864C100.557 158.821 100.528 158.78 100.497 158.74C99.9459 158.032 98.9387 157.873 98.1968 158.379C97.4549 158.884 97.2332 159.879 97.6913 160.651ZM96.5939 158.978C96.9721 159.526 97.3509 160.078 97.6913 160.651C98.1699 161.459 99.2136 161.726 100.022 161.247C100.243 161.116 100.423 160.943 100.559 160.743C100.535 160.476 100.524 160.207 100.524 159.939C100.524 159.827 100.524 159.714 100.524 159.602C100.519 159.356 100.539 159.108 100.585 158.863C100.214 158.242 99.8053 157.643 99.3947 157.047C99.0499 156.547 98.4644 156.269 97.8587 156.317C97.2528 156.366 96.7191 156.734 96.4579 157.283C96.1976 157.831 96.2492 158.478 96.5939 158.978Z" fill="#72afa9" fill-rule="nonzero" opacity="1" stroke="none"/>
<path d="M97.9947 158.013C83.065 121.983 91.6714 86.3019 84.3105 48.9276C82.6292 40.391 71.6154 22.3625 61.5176 34.0061C53.0088 43.8174 49.7746 57.4857 46.5299 69.7219C43.3132 81.8526 41.3279 91.849 40.0293 104.593C38.3045 121.519 37.7457 138.57 35.4515 155.429" fill="none" opacity="1" stroke="#72afa9" stroke-linecap="round" stroke-linejoin="round" stroke-width="3.40158"/>
<path d="M35.6499 157.117C35.8376 155.532 35.9917 153.943 36.1496 152.355C36.2419 151.42 35.559 150.587 34.6245 150.494C33.6899 150.402 32.8565 151.085 32.7641 152.019C32.7363 152.301 32.7085 152.583 32.6806 152.864C32.8155 153.013 32.9183 153.185 32.9851 153.37C32.9852 153.371 32.9854 153.371 32.9856 153.372C32.9973 153.404 33.0079 153.437 33.0173 153.47C33.019 153.477 33.0207 153.482 33.0225 153.488C33.0227 153.489 33.0228 153.489 33.023 153.49C33.064 153.634 33.0828 153.782 33.0805 153.928C33.0805 153.979 33.0804 154.03 33.0802 154.081C33.0804 154.088 33.0805 154.095 33.0805 154.102C33.0805 154.406 33.0245 154.71 32.9692 155.007C32.9321 155.208 32.8928 155.408 32.8652 155.61C32.8361 155.815 32.799 156.019 32.7597 156.222C32.7154 156.449 32.6659 156.675 32.6041 156.897C32.5597 157.054 32.5139 157.211 32.4666 157.367C32.4439 157.442 32.4212 157.516 32.3987 157.59C32.6314 158.129 33.1367 158.532 33.7612 158.606C34.6935 158.716 35.5394 158.049 35.6499 157.116L35.6499 157.117ZM34.9256 160.685C35.2397 159.513 35.5074 158.323 35.6499 157.117C35.7597 156.184 35.0936 155.339 34.1605 155.228C33.6739 155.171 33.2112 155.325 32.8642 155.617C32.8353 155.82 32.7986 156.021 32.7597 156.223C32.7154 156.449 32.6659 156.675 32.6041 156.897C32.5597 157.055 32.5139 157.211 32.4667 157.368C32.4186 157.525 32.3714 157.681 32.3241 157.838C32.2717 158.013 32.2172 158.187 32.159 158.361C32.1226 158.469 32.0957 158.581 32.0717 158.692C32.0245 158.916 31.9699 159.139 31.911 159.36C31.8477 159.595 31.7808 159.829 31.7103 160.063C31.6704 160.194 31.6321 160.326 31.595 160.458C31.6793 161.123 32.1544 161.702 32.8419 161.887C33.7488 162.131 34.6819 161.592 34.9256 160.685ZM34.1939 163.99C34.3765 162.876 34.6325 161.775 34.9256 160.685C35.1685 159.778 34.631 158.845 33.7234 158.602C33.0532 158.422 32.3687 158.669 31.9587 159.176C31.9433 159.237 31.9273 159.299 31.911 159.36C31.8477 159.595 31.7808 159.829 31.7103 160.063C31.6434 160.283 31.5808 160.504 31.5212 160.726C31.4557 160.972 31.3845 161.216 31.3016 161.457C31.2889 161.493 31.2766 161.528 31.2645 161.564C31.2463 161.621 31.2281 161.679 31.2099 161.736C31.2078 161.743 31.2055 161.75 31.2034 161.757C31.2023 161.759 31.2013 161.763 31.2001 161.767C31.1762 161.841 31.1472 161.911 31.1135 161.979C31.0103 162.464 30.9173 162.951 30.8368 163.441C30.7387 164.04 30.9677 164.647 31.4383 165.031C31.9081 165.417 32.5481 165.522 33.1161 165.307C33.6848 165.093 34.0957 164.591 34.1939 163.991L34.1939 163.99ZM33.863 166.348C33.9401 165.558 34.0659 164.773 34.1939 163.99C34.3459 163.064 33.7176 162.189 32.7903 162.037C31.8637 161.885 30.9888 162.513 30.8368 163.44C30.6972 164.296 30.5619 165.154 30.4776 166.016C30.3859 166.952 31.0696 167.784 32.0048 167.875C32.9394 167.966 33.7714 167.283 33.863 166.348Z" fill="#72afa9" fill-rule="nonzero" opacity="1" stroke="none"/>
<path d="M32.1705 166.183C32.1123 166.777 32.003 167.476 31.8424 168.277C31.6819 169.079 31.4917 169.73 31.272 170.23C31.0522 170.73 30.7659 171.58 30.4132 172.778C30.0605 173.977 29.8239 174.748 29.7035 175.091C29.5832 175.434 29.4077 175.771 29.1772 176.101C28.9467 176.431 28.7061 176.699 28.4554 176.906C28.2048 177.112 27.9517 177.402 27.6961 177.774C27.4405 178.147 27.2698 178.491 27.1837 178.806C27.0978 179.121 27.0451 179.599 27.0259 180.239C27.0066 180.879 27.1805 181.301 27.5474 181.505" fill="none" opacity="1" stroke="#72afa9" stroke-linecap="round" stroke-linejoin="round" stroke-width="3.40158"/>
<path d="M172.005 150.126C176.037 135.87 173.606 136.39 175.555 117.994C177.377 100.802 177.473 91.5969 178.509 74.9114C178.776 70.6211 179.138 66.3279 179.648 62.0544C180.158 57.7808 180.816 53.5269 181.676 49.3151C182.178 46.8524 182.822 44.3978 183.638 42.0062C184.455 39.6145 185.445 37.2858 186.64 35.0747C197.184 15.5694 209.795 20.8344 221.281 32.126C232.767 43.4176 243.128 60.7357 249.172 65.3367C256.229 70.7095 264.21 73.1126 272.517 74.3107C280.823 75.5089 289.455 75.5022 297.815 76.0556" fill="none" opacity="1" stroke="#72afa9" stroke-linecap="round" stroke-linejoin="round" stroke-width="3.40158"/>
<path d="M292.492 77.5326C293.236 77.5352 293.992 77.5164 294.735 77.5798C295.302 77.6283 295.828 77.3927 296.172 76.9912C296.129 76.5308 296.117 76.0663 296.104 75.607C296.096 75.3024 296.088 74.9958 296.089 74.6892C295.815 74.4116 295.444 74.2266 295.025 74.1907C294.188 74.1194 293.341 74.1339 292.503 74.1311C291.563 74.1284 290.799 74.8867 290.796 75.8263C290.792 76.7652 291.552 77.5296 292.492 77.5326ZM294.735 77.5798C295.072 77.6088 295.409 77.646 295.743 77.6924C295.922 77.7175 296.098 77.7138 296.267 77.6844C296.141 77.0014 296.123 76.2982 296.104 75.6066C296.094 75.1758 296.081 74.7404 296.096 74.3074C295.74 74.2596 295.383 74.2211 295.025 74.1903C294.419 74.1387 293.832 74.4143 293.485 74.9124C293.138 75.4107 293.082 76.0572 293.34 76.607C293.598 77.1575 294.13 77.5278 294.735 77.5794L294.735 77.5798ZM295.743 77.6924C295.922 77.7176 296.101 77.74 296.281 77.7603C296.278 77.7455 296.276 77.7307 296.273 77.7159C296.272 77.7066 296.269 77.698 296.268 77.6891C296.141 77.0048 296.123 76.3 296.105 75.607C296.094 75.1774 296.081 74.7435 296.097 74.3116C295.535 74.2728 294.987 74.5143 294.638 74.9623C294.264 75.4416 294.174 76.0838 294.403 76.6467C294.63 77.2103 295.142 77.6088 295.744 77.6924L295.743 77.6924ZM296.089 74.8398C295.756 75.1202 295.53 75.5278 295.49 75.9958C295.435 76.637 295.744 77.2254 296.244 77.558C296.139 76.915 296.121 76.2559 296.104 75.607C296.098 75.3523 296.091 75.0962 296.089 74.8398Z" fill="#72afa9" fill-rule="nonzero" opacity="1" stroke="none"/>
<path d="M25.4817 176.437C24.8924 176.36 24.5283 176.396 24.3893 176.548C24.2923 176.653 24.2107 176.783 24.1445 176.938C24.0782 177.093 24.0227 177.247 23.9778 177.401C23.9329 177.555 23.8995 177.712 23.8775 177.871C23.8555 178.029 23.8419 178.309 23.8368 178.71C23.8317 179.111 23.8382 179.402 23.8568 179.582C23.8752 179.763 23.9216 179.93 23.9959 180.083C24.0702 180.237 24.1599 180.379 24.2649 180.51C24.3699 180.641 24.5551 180.812 24.8204 181.024C25.0858 181.237 25.2959 181.395 25.4508 181.5C25.6056 181.604 25.7583 181.685 25.9087 181.74C26.059 181.795 26.209 181.833 26.3585 181.854C26.508 181.875 26.7648 181.892 27.1288 181.905C27.4929 181.919 27.7236 181.92 27.8209 181.91C27.9181 181.9 28.039 181.813 28.1835 181.65C28.328 181.486 28.44 181.311 28.5196 181.125C28.5992 180.938 28.6605 180.768 28.7037 180.612C28.7469 180.457 28.7816 180.298 28.8079 180.134C28.8342 179.97 28.8486 179.795 28.8513 179.609C28.8542 179.424 28.8356 179.232 28.7963 179.035C28.757 178.838 28.6846 178.628 28.5792 178.406C28.4738 178.183 28.3459 177.972 28.1956 177.771C28.0453 177.57 27.8901 177.395 27.7301 177.245C27.5701 177.094 27.424 176.978 27.292 176.895C27.16 176.812 26.9773 176.751 26.7438 176.711C26.5104 176.671 26.3018 176.65 26.1181 176.65C25.9346 176.649 25.7675 176.668 25.6168 176.706C25.4661 176.745 25.3253 176.795 25.1942 176.856C25.0632 176.918 24.9548 176.99 24.8692 177.073C24.7836 177.156 24.7055 177.253 24.635 177.363C24.5645 177.473 24.5085 177.599 24.4672 177.74C24.4259 177.881 24.4005 178.026 24.3911 178.176C24.3817 178.325 24.3838 178.463 24.3976 178.589C24.4112 178.715 24.5155 178.894 24.7104 179.127C24.9053 179.359 25.0951 179.546 25.2795 179.688C25.464 179.829 25.6547 179.959 25.8515 180.079C26.0483 180.199 26.2275 180.282 26.3889 180.327C26.5504 180.372 26.5676 180.285 26.4406 180.068C26.3136 179.851 26.1037 179.527 25.8109 179.097C25.5182 178.667 25.3123 178.376 25.1934 178.225C25.0744 178.074 24.9859 177.97 24.9278 177.915C24.8697 177.86 24.8309 177.823 24.8113 177.804C24.7918 177.785 24.7844 177.789 24.7891 177.814C24.7935 177.839 24.8032 177.89 24.8171 177.965C24.8371 178.072 25.1005 178.292 25.6075 178.623" fill="none" opacity="1" stroke="#e28e6e" stroke-linecap="round" stroke-linejoin="round" stroke-width="3.40158"/>
<path d="M33.8039 147.758C33.7713 148.059 33.7544 148.354 33.7532 148.644C33.7517 148.934 33.7731 149.161 33.8166 149.324C33.8601 149.487 33.9256 149.664 34.013 149.855C34.1004 150.045 34.2137 150.229 34.353 150.407C34.4923 150.584 34.6341 150.735 34.7785 150.859C34.9229 150.983 35.1191 151.099 35.367 151.207C35.6149 151.315 35.9059 151.379 36.2397 151.397C36.5736 151.416 36.8504 151.415 37.0703 151.397C37.2901 151.377 37.5007 151.333 37.702 151.263C37.9033 151.193 38.0911 151.107 38.2655 151.004C38.4398 150.901 38.6036 150.767 38.7568 150.601C38.9101 150.436 39.0497 150.235 39.1757 149.996C39.3019 149.758 39.401 149.479 39.4733 149.158" fill="none" opacity="1" stroke="#e28e6e" stroke-linecap="round" stroke-linejoin="round" stroke-width="5.6693"/>
<path d="M24.6987 175.844C24.3136 175.835 24.0014 175.875 23.7621 175.964C23.5991 176.025 23.4819 176.095 23.4105 176.176C23.3392 176.257 23.2736 176.36 23.2136 176.485C23.1538 176.609 23.1011 176.762 23.0556 176.943C23.01 177.124 22.9777 177.334 22.9587 177.574C22.9396 177.814 22.9291 178.067 22.9272 178.332C22.9251 178.598 22.9294 178.838 22.9399 179.053C22.9503 179.267 23.0149 179.537 23.1339 179.861C23.2529 180.185 23.3873 180.468 23.537 180.71C23.6867 180.952 23.8632 181.176 24.0667 181.383C24.2702 181.591 24.4955 181.77 24.7426 181.921C24.9897 182.071 25.2416 182.186 25.4984 182.264C25.7551 182.343 26.0051 182.393 26.2483 182.414C26.4915 182.436 26.7122 182.426 26.9105 182.385C27.1088 182.344 27.2812 182.266 27.4276 182.151C27.574 182.036 27.7149 181.889 27.8505 181.71C27.9861 181.531 28.0946 181.338 28.1761 181.131C28.2576 180.924 28.3095 180.721 28.3318 180.521C28.3541 180.321 28.3519 180.091 28.3253 179.83C28.2985 179.569 28.2185 179.29 28.0853 178.994C27.9521 178.697 27.7939 178.418 27.6105 178.157C27.4271 177.896 27.2227 177.663 26.9974 177.458C26.7721 177.253 26.5151 177.08 26.2262 176.938C25.9374 176.797 25.6869 176.707 25.4748 176.669C25.2627 176.631 25.0304 176.61 24.7779 176.606C24.5255 176.602 24.2984 176.668 24.0965 176.803C23.8067 176.997 23.7176 177.246 23.8291 177.548" fill="none" opacity="1" stroke="#e28e6e" stroke-linecap="round" stroke-linejoin="round" stroke-width="5.6693"/>
<path d="M96.573 153.047C96.4799 153.134 96.3256 153.127 96.11 153.025C95.9638 152.956 95.8191 152.916 95.6759 152.904C95.5327 152.892 95.4219 152.913 95.3436 152.965C95.2653 153.018 95.188 153.122 95.1119 153.276C95.0358 153.431 94.9735 153.635 94.9251 153.887C94.8768 154.14 94.8463 154.425 94.8338 154.741C94.8212 155.057 94.8323 155.336 94.8676 155.577C94.9027 155.819 94.9501 155.998 95.0098 156.114C95.0694 156.231 95.1629 156.345 95.29 156.457C95.4171 156.569 95.5653 156.661 95.7344 156.733C95.9035 156.805 96.1322 156.847 96.4206 156.86C96.7091 156.873 96.9468 156.825 97.1338 156.716C97.3208 156.608 97.4941 156.465 97.6538 156.289C97.8135 156.113 97.9558 155.917 98.0809 155.701C98.2059 155.485 98.3132 155.258 98.4029 155.019C98.4925 154.78 98.5599 154.515 98.6052 154.225C98.6505 153.934 98.6711 153.636 98.6668 153.329C98.6624 153.022 98.6282 152.773 98.5639 152.58C98.4995 152.388 98.4355 152.24 98.3718 152.136C98.3081 152.031 98.239 151.952 98.1643 151.898C98.0896 151.844 98.0062 151.804 97.9139 151.778C97.8216 151.752 97.692 151.734 97.5253 151.724C97.3585 151.713 97.1555 151.726 96.9163 151.761C96.6771 151.796 96.4486 151.867 96.2308 151.976C96.0131 152.084 95.8266 152.202 95.6715 152.33C95.5165 152.458 95.4031 152.589 95.3314 152.723C95.2597 152.856 95.2164 153 95.2016 153.155C95.1867 153.309 95.2165 153.454 95.291 153.59C95.3656 153.727 95.4632 153.84 95.5842 153.93C95.7051 154.021 95.8443 154.098 96.0018 154.164C96.1593 154.23 96.2862 154.276 96.3823 154.302C96.4784 154.329 96.6448 154.354 96.8814 154.377C97.1179 154.4 97.3086 154.409 97.4534 154.403C97.5982 154.397 97.728 154.363 97.8427 154.302C97.9575 154.241 98.0448 154.165 98.1048 154.075C98.1647 153.985 98.2037 153.86 98.2219 153.702C98.24 153.544 98.2036 153.364 98.1129 153.162C98.0222 152.96 97.8836 152.797 97.6972 152.672C97.5107 152.546 97.3174 152.474 97.1169 152.454C96.8283 152.425 96.4966 152.619 96.122 153.037" fill="none" opacity="1" stroke="#e28e6e" stroke-linecap="round" stroke-linejoin="round" stroke-width="5.6693"/>
<path d="M174.068 144.668C173.734 144.49 173.324 144.379 172.838 144.337C172.517 144.309 172.295 144.383 172.173 144.559C172.051 144.735 171.924 144.987 171.793 145.315C171.662 145.642 171.541 145.991 171.429 146.361C171.317 146.731 171.241 147.02 171.2 147.226C171.16 147.432 171.145 147.673 171.156 147.947C171.166 148.222 171.228 148.421 171.34 148.544C171.452 148.666 171.681 148.824 172.026 149.016C172.372 149.209 172.649 149.331 172.859 149.383C173.069 149.434 173.384 149.472 173.804 149.495C174.224 149.518 174.513 149.521 174.671 149.505C174.829 149.489 174.988 149.377 175.147 149.17C175.307 148.963 175.402 148.75 175.431 148.531C175.461 148.312 175.477 148.059 175.48 147.771C175.483 147.483 175.433 147.177 175.331 146.853C175.229 146.529 175.087 146.23 174.905 145.955C174.724 145.681 174.491 145.43 174.208 145.204C173.924 144.977 173.601 144.839 173.238 144.791C172.875 144.742 172.629 144.747 172.5 144.805C172.371 144.863 172.27 144.939 172.197 145.033C172.092 145.167 172.138 145.459 172.335 145.909" fill="none" opacity="1" stroke="#e28e6e" stroke-linecap="round" stroke-linejoin="round" stroke-width="5.6693"/>
<path d="M36.8477 145.21C36.2867 145.148 35.8585 145.123 35.5632 145.136C35.3608 145.145 35.2186 145.19 35.1365 145.273C35.0545 145.355 34.9878 145.519 34.9365 145.764C34.8851 146.009 34.8509 146.289 34.8338 146.604C34.8167 146.92 34.8106 147.267 34.8153 147.644C34.8197 148.021 34.8763 148.313 34.984 148.52C35.0918 148.726 35.1956 148.887 35.2953 149C35.3951 149.114 35.5376 149.239 35.7229 149.376C35.9082 149.513 36.088 149.62 36.2624 149.698C36.4369 149.775 36.666 149.85 36.9497 149.922C37.2334 149.993 37.4695 150.043 37.6579 150.071C37.8463 150.1 38.0469 150.11 38.2595 150.102C38.4721 150.094 38.6837 150.005 38.8944 149.835C39.105 149.666 39.2807 149.506 39.4214 149.356C39.5622 149.207 39.6854 149.031 39.7909 148.829C39.8965 148.626 39.9638 148.442 39.9929 148.277C40.0219 148.112 40.0375 147.954 40.0397 147.804C40.0419 147.653 40.0262 147.503 39.9929 147.352C39.9595 147.201 39.8767 146.991 39.7443 146.723C39.612 146.454 39.4671 146.23 39.3096 146.049C39.1521 145.869 38.9541 145.686 38.7156 145.502C38.4771 145.317 38.276 145.185 38.1123 145.105C37.9485 145.025 37.7429 144.97 37.4956 144.94C37.2483 144.91 36.909 144.97 36.4779 145.121C36.0467 145.272 35.758 145.379 35.6116 145.444C35.4652 145.508 35.3309 145.581 35.2087 145.664C35.0864 145.747 34.9769 145.851 34.8801 145.977C34.7834 146.102 34.7152 146.216 34.6756 146.319C34.636 146.422 34.6153 146.531 34.6135 146.648C34.6113 146.765 34.707 146.967 34.8997 147.252C35.0925 147.538 35.248 147.738 35.3664 147.853C35.4848 147.968 35.6292 148.071 35.7997 148.163C35.9701 148.255 36.1443 148.331 36.3221 148.393C36.5 148.456 36.6853 148.503 36.8781 148.536C37.071 148.568 37.2489 148.586 37.4118 148.588C37.5747 148.59 37.6888 148.552 37.7541 148.475C37.8482 148.365 37.8822 148.143 37.8563 147.81" fill="none" opacity="1" stroke="#e28e6e" stroke-linecap="round" stroke-linejoin="round" stroke-width="5.6693"/>
<path d="M172.656 145.916C172.736 145.213 172.683 144.784 172.497 144.631C172.367 144.524 172.174 144.457 171.919 144.431C171.663 144.405 171.467 144.442 171.328 144.542C171.189 144.641 171.049 144.77 170.908 144.926C170.767 145.083 170.645 145.262 170.543 145.463C170.441 145.665 170.367 145.866 170.321 146.067C170.276 146.268 170.252 146.457 170.251 146.637C170.25 146.816 170.266 146.967 170.299 147.092C170.331 147.216 170.427 147.307 170.585 147.365C170.743 147.423 170.876 147.358 170.984 147.17C171.091 146.981 171.151 146.768 171.164 146.528L171.177 146.29L171.174 146.353" fill="none" opacity="1" stroke="#e28e6e" stroke-linecap="round" stroke-linejoin="round" stroke-width="5.6693"/>
<path d="M25.3555 187.12C25.0662 187.135 24.7165 186.933 24.3066 186.513C24.0382 186.238 23.8867 186.025 23.852 185.874C23.8172 185.723 24.7603 185.622 26.6811 185.571C28.6019 185.52 30.3763 185.457 32.0042 185.381C33.6321 185.305 35.4446 185.188 37.4417 185.029C39.4388 184.87 41.44 184.716 43.4452 184.566C45.4504 184.416 48.2977 184.192 51.9869 183.895C55.6762 183.598 59.4491 183.298 63.3055 182.995C67.162 182.692 71.1972 182.35 75.4111 181.968C79.625 181.587 82.7244 181.342 84.7093 181.232C86.6942 181.122 90.6636 180.958 96.6177 180.739C102.572 180.521 107.589 180.295 111.669 180.064C115.749 179.832 119.108 179.679 121.747 179.607C124.386 179.534 126.639 179.495 128.506 179.49C130.372 179.485 132.293 179.506 134.269 179.551C136.245 179.596 138.37 179.628 140.644 179.647C142.918 179.665 146.727 179.676 152.072 179.678C157.416 179.68 161.228 179.644 163.506 179.57C165.784 179.496 168.679 179.405 172.191 179.298C175.703 179.191 181.051 179.04 188.237 178.845C195.422 178.65 200.355 178.49 203.037 178.363C205.718 178.237 209.638 178.032 214.797 177.747C219.956 177.463 223.637 177.284 225.84 177.211C228.043 177.138 231.36 177.05 235.79 176.949C240.221 176.848 243.664 176.738 246.121 176.62C248.577 176.502 250.93 176.372 253.18 176.232C255.429 176.091 257.705 175.97 260.006 175.867C262.307 175.765 264.537 175.678 266.696 175.608C268.855 175.538 271.601 175.483 274.935 175.442C278.269 175.401 281.481 175.38 284.572 175.378C287.662 175.376 289.725 175.398 290.762 175.444C291.799 175.489 293.135 175.569 294.772 175.682C296.409 175.796 297.716 175.894 298.694 175.976C299.672 176.058 301.322 176.144 303.644 176.235C305.966 176.326 308.51 176.381 311.276 176.401C314.042 176.42 315.841 176.414 316.672 176.381C317.504 176.348 318.56 176.229 319.84 176.023C321.12 175.818 323.249 175.58 326.228 175.309C329.207 175.038 331.208 174.851 332.232 174.746C333.256 174.641 334.073 174.587 334.684 174.583C335.295 174.58 335.679 174.577 335.838 174.577" fill="none" opacity="1" stroke="#3b464c" stroke-linecap="round" stroke-linejoin="round" stroke-width="3.40158"/>
<path d="M174.113 145.417C174.252 144.694 174.197 144.277 173.948 144.166C173.772 144.087 173.516 144.047 173.179 144.044C172.842 144.042 172.56 144.081 172.334 144.161C172.107 144.242 171.843 144.376 171.541 144.566C171.239 144.755 170.929 144.969 170.611 145.207C170.292 145.445 170.007 145.671 169.756 145.885C169.504 146.1 169.301 146.305 169.144 146.501C168.988 146.696 168.901 146.897 168.882 147.103C168.863 147.308 168.893 147.525 168.972 147.754C169.051 147.982 169.198 148.2 169.413 148.406C169.628 148.612 169.874 148.793 170.151 148.949C170.428 149.105 170.705 149.227 170.982 149.315C171.258 149.404 171.558 149.461 171.882 149.487C172.205 149.514 172.475 149.511 172.692 149.48C172.909 149.448 173.166 149.329 173.463 149.123C173.76 148.917 174.017 148.613 174.234 148.211C174.452 147.81 174.588 147.43 174.642 147.071C174.697 146.712 174.719 146.375 174.709 146.06C174.699 145.744 174.622 145.447 174.477 145.166C174.332 144.886 174.148 144.656 173.926 144.476C173.704 144.297 173.453 144.174 173.174 144.109C172.894 144.044 172.601 144.008 172.296 144.001C171.99 143.994 171.725 144.062 171.499 144.207C171.274 144.352 171.093 144.5 170.956 144.652C170.819 144.805 170.727 144.976 170.68 145.168C170.613 145.44 170.908 145.848 171.564 146.392" fill="none" opacity="1" stroke="#e28e6e" stroke-linecap="round" stroke-linejoin="round" stroke-width="5.6693"/>
<path d="M25.9361 180.77C31.8133 169.953 34.9115 158.875 38.1892 147.032" fill="none" opacity="1" stroke="#e28e6e" stroke-linecap="round" stroke-linejoin="round" stroke-width="5.6693"/>
<path d="M35.9308 154.296C36.0489 153.873 36.1423 153.501 36.211 153.179C36.2797 152.856 36.3338 152.5 36.3731 152.111C36.4125 151.722 36.4605 151.374 36.5171 151.069C36.5736 150.763 36.6635 150.364 36.7869 149.872C36.9103 149.379 37.0021 149.021 37.0622 148.797C37.1224 148.572 37.1559 148.413 37.1628 148.319C37.1723 148.19 37.1083 148.192 36.9706 148.325" fill="none" opacity="1" stroke="#e28e6e" stroke-linecap="round" stroke-linejoin="round" stroke-width="5.6693"/>
<path d="M123.197 177.951C123.02 177.799 122.892 177.698 122.815 177.649C122.762 177.614 122.711 177.599 122.661 177.601C122.611 177.604 122.544 177.669 122.461 177.796C122.379 177.923 122.265 178.175 122.12 178.552C121.975 178.929 121.883 179.173 121.842 179.285C121.802 179.396 121.768 179.508 121.742 179.618C121.715 179.729 121.697 179.838 121.687 179.945C121.677 180.052 121.673 180.154 121.676 180.251C121.679 180.348 121.706 180.443 121.76 180.536C121.814 180.63 121.886 180.712 121.978 180.784C122.07 180.856 122.17 180.918 122.279 180.968C122.388 181.019 122.501 181.05 122.618 181.062C122.735 181.073 122.855 181.071 122.976 181.056C123.097 181.041 123.218 180.992 123.337 180.91C123.456 180.829 123.563 180.721 123.657 180.587C123.752 180.452 123.833 180.279 123.899 180.066C123.966 179.854 124.012 179.616 124.039 179.352C124.066 179.089 124.075 178.863 124.068 178.674C124.061 178.485 124.033 178.339 123.985 178.237C123.937 178.135 123.883 178.044 123.822 177.964C123.761 177.883 123.69 177.823 123.611 177.782C123.531 177.741 123.426 177.707 123.296 177.68C123.165 177.652 123.007 177.637 122.822 177.634C122.637 177.631 122.52 177.644 122.47 177.674C122.4 177.716 122.41 177.841 122.501 178.049" fill="none" opacity="1" stroke="#e28e6e" stroke-linecap="round" stroke-linejoin="round" stroke-width="5.6693"/>
<path d="M151.653 178.105C151.467 177.944 151.301 177.855 151.153 177.836C151.052 177.823 150.957 177.851 150.869 177.92C150.781 177.989 150.691 178.095 150.598 178.239C150.505 178.383 150.439 178.499 150.401 178.587C150.363 178.674 150.332 178.769 150.309 178.87C150.285 178.972 150.27 179.136 150.265 179.361C150.259 179.587 150.26 179.733 150.266 179.799C150.273 179.865 150.327 179.984 150.429 180.154C150.532 180.325 150.615 180.438 150.68 180.494C150.744 180.549 150.811 180.594 150.881 180.63C150.951 180.666 151.026 180.692 151.107 180.709C151.187 180.726 151.307 180.735 151.466 180.737C151.625 180.739 151.74 180.733 151.811 180.72C151.882 180.707 151.957 180.674 152.036 180.622C152.116 180.571 152.191 180.481 152.263 180.353C152.334 180.225 152.394 180.067 152.441 179.88C152.488 179.692 152.516 179.492 152.526 179.279C152.535 179.066 152.524 178.905 152.495 178.794C152.465 178.684 152.413 178.563 152.34 178.43C152.267 178.298 152.203 178.201 152.15 178.14C152.096 178.078 152.036 178.029 151.972 177.994C151.907 177.958 151.837 177.933 151.76 177.919C151.684 177.906 151.602 177.91 151.515 177.932C151.427 177.954 151.345 177.996 151.27 178.058C151.159 178.148 151.085 178.309 151.046 178.54" fill="none" opacity="1" stroke="#e28e6e" stroke-linecap="round" stroke-linejoin="round" stroke-width="5.6693"/>
<path d="M152.061 179.938C168.007 177.523 171.668 163.362 172.483 149.166" fill="none" opacity="1" stroke="#e28e6e" stroke-linecap="round" stroke-linejoin="round" stroke-width="5.6693"/>
<path d="M172.632 144.335C172.472 144.116 172.32 143.964 172.175 143.877C172.076 143.818 171.975 143.781 171.87 143.765C171.765 143.75 171.639 143.744 171.492 143.747C171.345 143.75 171.201 143.772 171.061 143.812C170.922 143.852 170.787 143.913 170.657 143.994C170.527 144.075 170.389 144.196 170.242 144.357C170.094 144.517 169.987 144.652 169.919 144.759C169.851 144.867 169.785 144.983 169.72 145.106C169.655 145.229 169.583 145.356 169.505 145.488C169.427 145.62 169.371 145.783 169.336 145.976C169.3 146.17 169.282 146.367 169.282 146.566C169.281 146.766 169.288 146.917 169.302 147.018C169.322 147.164 169.464 147.373 169.727 147.645" fill="none" opacity="1" stroke="#e28e6e" stroke-linecap="round" stroke-linejoin="round" stroke-width="5.6693"/>
<path d="M151.885 176.389C151.907 176.092 151.894 175.87 151.844 175.722C151.81 175.621 151.757 175.537 151.685 175.47C151.612 175.403 151.518 175.354 151.403 175.322C151.287 175.29 151.196 175.274 151.13 175.273C151.064 175.272 150.967 175.297 150.84 175.347C150.712 175.397 150.592 175.439 150.479 175.471C150.365 175.504 150.235 175.557 150.089 175.631C149.943 175.706 149.758 175.815 149.536 175.958C149.314 176.102 149.137 176.228 149.004 176.337C148.871 176.446 148.74 176.566 148.611 176.696C148.483 176.827 148.381 176.954 148.306 177.078C148.23 177.203 148.154 177.348 148.077 177.516C148 177.683 147.937 177.834 147.886 177.97C147.836 178.106 147.798 178.232 147.774 178.349C147.75 178.466 147.738 178.668 147.738 178.953C147.737 179.239 147.738 179.447 147.742 179.579C147.746 179.711 147.776 179.917 147.832 180.197C147.888 180.477 147.936 180.671 147.976 180.782C148.015 180.892 148.062 180.999 148.116 181.103C148.17 181.206 148.235 181.312 148.312 181.42C148.389 181.528 148.474 181.626 148.566 181.715C148.658 181.805 148.759 181.89 148.869 181.972C148.98 182.053 149.098 182.123 149.225 182.182C149.352 182.24 149.493 182.286 149.648 182.319C149.803 182.352 149.962 182.376 150.124 182.393C150.287 182.409 150.617 182.42 151.116 182.426C151.614 182.431 151.908 182.417 151.997 182.384C152.087 182.35 152.177 182.302 152.27 182.239C152.362 182.175 152.453 182.101 152.542 182.015C152.631 181.929 152.756 181.766 152.915 181.524C153.075 181.282 153.2 181.085 153.292 180.932C153.383 180.779 153.475 180.597 153.57 180.387C153.665 180.177 153.747 179.931 153.817 179.649C153.886 179.368 153.93 179.152 153.948 179.001C153.966 178.85 153.981 178.684 153.993 178.503C154.005 178.323 154.011 178.148 154.013 177.981C154.014 177.813 154.01 177.665 154 177.535C153.99 177.406 153.968 177.289 153.933 177.186C153.898 177.083 153.832 176.951 153.734 176.79C153.636 176.63 153.517 176.457 153.375 176.274C153.234 176.09 153.116 175.957 153.022 175.876C152.929 175.794 152.832 175.722 152.732 175.659C152.631 175.596 152.542 175.547 152.463 175.512C152.348 175.461 152.182 175.431 151.966 175.423" fill="none" opacity="1" stroke="#e28e6e" stroke-linecap="round" stroke-linejoin="round" stroke-width="5.6693"/>
<path d="M122.325 177.85C122.261 177.902 122.162 177.923 122.028 177.912C121.894 177.901 121.77 177.895 121.657 177.895C121.543 177.895 121.462 177.905 121.413 177.927C121.365 177.948 121.293 178.018 121.198 178.138C121.103 178.257 121.023 178.388 120.958 178.533C120.893 178.677 120.85 178.801 120.831 178.903C120.811 179.005 120.798 179.182 120.792 179.435C120.786 179.688 120.786 179.857 120.792 179.941C120.799 180.026 120.822 180.128 120.862 180.246C120.903 180.364 120.978 180.536 121.089 180.761C121.199 180.986 121.309 181.185 121.419 181.358C121.528 181.532 121.627 181.672 121.717 181.781C121.806 181.889 121.909 181.997 122.025 182.105C122.142 182.213 122.235 182.293 122.305 182.346C122.375 182.4 122.467 182.458 122.581 182.52C122.695 182.582 122.826 182.624 122.974 182.647C123.121 182.669 123.27 182.67 123.421 182.649C123.572 182.628 123.717 182.57 123.855 182.475C123.994 182.38 124.13 182.261 124.264 182.118C124.398 181.974 124.491 181.864 124.544 181.788C124.597 181.711 124.643 181.605 124.681 181.468C124.719 181.332 124.74 181.187 124.745 181.033C124.749 180.879 124.733 180.726 124.695 180.576C124.658 180.426 124.621 180.308 124.586 180.222C124.55 180.137 124.502 180.041 124.441 179.936C124.38 179.831 124.304 179.719 124.212 179.598C124.119 179.478 123.95 179.296 123.703 179.053C123.457 178.81 123.241 178.595 123.057 178.409C122.873 178.223 122.729 178.083 122.625 177.99C122.521 177.896 122.411 177.823 122.294 177.77C122.177 177.718 122.04 177.683 121.882 177.666C121.725 177.649 121.507 177.649 121.23 177.666C120.952 177.684 120.771 177.706 120.685 177.733C120.6 177.76 120.519 177.807 120.443 177.872C120.368 177.938 120.285 178.031 120.195 178.151C120.106 178.271 120.035 178.378 119.983 178.472C119.93 178.565 119.888 178.654 119.857 178.739C119.826 178.824 119.806 178.934 119.797 179.069C119.789 179.204 119.812 179.297 119.868 179.348C119.924 179.399 120.001 179.428 120.097 179.435C120.239 179.446 120.359 179.388 120.458 179.261" fill="none" opacity="1" stroke="#e28e6e" stroke-linecap="round" stroke-linejoin="round" stroke-width="5.6693"/>
<path d="M122.945 180.042C122.975 179.866 122.895 179.694 122.704 179.525C122.513 179.356 122.359 179.235 122.243 179.161C122.127 179.088 121.964 179.023 121.756 178.967C121.549 178.912 121.355 178.881 121.174 178.877C120.994 178.872 120.855 178.892 120.759 178.937C120.662 178.983 120.591 179.054 120.544 179.151C120.498 179.248 120.465 179.362 120.447 179.492C120.428 179.622 120.415 179.79 120.407 179.997C120.399 180.203 120.395 180.422 120.395 180.653C120.395 180.885 120.422 181.103 120.475 181.307C120.528 181.511 120.588 181.687 120.655 181.835C120.723 181.984 120.785 182.088 120.842 182.147C120.899 182.207 120.992 182.263 121.121 182.315C121.249 182.368 121.428 182.418 121.657 182.467C121.886 182.516 122.137 182.587 122.411 182.68C122.684 182.773 122.818 182.795 122.814 182.748C122.808 182.7 122.759 182.618 122.666 182.501C122.572 182.385 122.469 182.275 122.356 182.172C122.243 182.069 122.141 181.984 122.049 181.916C121.957 181.848 121.848 181.775 121.723 181.699C121.597 181.623 121.474 181.556 121.351 181.499C121.229 181.441 121.088 181.393 120.927 181.353C120.767 181.314 120.621 181.152 120.49 180.868C120.359 180.583 120.25 180.298 120.165 180.013C120.08 179.727 120.021 179.508 119.989 179.355C119.957 179.203 119.937 179.046 119.929 178.883C119.921 178.72 119.943 178.576 119.995 178.45C120.046 178.324 120.097 178.223 120.147 178.146C120.197 178.07 120.252 178.003 120.315 177.945C120.377 177.888 120.479 177.832 120.622 177.779C120.764 177.725 120.897 177.693 121.021 177.681C121.145 177.669 121.211 177.663 121.22 177.662C121.229 177.662 121.228 177.663 121.217 177.667C121.207 177.67 121.128 177.7 120.98 177.754C120.833 177.809 120.705 177.862 120.595 177.912C120.486 177.963 120.368 178.025 120.24 178.099C120.113 178.172 119.981 178.258 119.845 178.357C119.709 178.457 119.597 178.542 119.51 178.614C119.422 178.687 119.337 178.774 119.253 178.877C119.17 178.979 119.114 179.076 119.086 179.168C119.057 179.26 119.041 179.42 119.037 179.65C119.033 179.88 119.096 180.192 119.227 180.584C119.358 180.977 119.466 181.249 119.552 181.398C119.638 181.548 119.788 181.735 120.003 181.961C120.217 182.186 120.38 182.363 120.492 182.491C120.604 182.62 120.717 182.738 120.831 182.847C120.945 182.955 121.07 183.045 121.206 183.115C121.342 183.185 121.532 183.262 121.775 183.347C122.018 183.432 122.238 183.482 122.435 183.496C122.631 183.511 122.797 183.499 122.932 183.461C123.067 183.424 123.191 183.374 123.304 183.313C123.417 183.252 123.569 183.152 123.758 183.012C123.948 182.872 124.089 182.754 124.182 182.656C124.276 182.559 124.358 182.459 124.43 182.356C124.502 182.252 124.574 182.13 124.646 181.989C124.718 181.848 124.771 181.69 124.806 181.516C124.842 181.342 124.864 181.179 124.872 181.025C124.881 180.872 124.886 180.684 124.886 180.46C124.886 180.236 124.879 180.067 124.865 179.953C124.852 179.839 124.818 179.672 124.764 179.453C124.71 179.234 124.667 179.073 124.634 178.969C124.601 178.865 124.55 178.743 124.48 178.602C124.409 178.461 124.33 178.338 124.243 178.234C124.156 178.13 124.069 178.042 123.981 177.97C123.894 177.899 123.77 177.816 123.609 177.721C123.448 177.627 123.277 177.535 123.096 177.447C122.915 177.358 122.768 177.295 122.654 177.256C122.54 177.218 122.331 177.173 122.028 177.121C121.724 177.069 121.457 177.037 121.225 177.027C120.993 177.016 120.8 177.01 120.646 177.01C120.491 177.01 120.382 177.019 120.316 177.039C120.25 177.058 120.154 177.128 120.027 177.249C119.901 177.369 119.782 177.492 119.67 177.618C119.559 177.743 119.477 177.85 119.424 177.939C119.372 178.027 119.332 178.138 119.305 178.271C119.278 178.404 119.265 178.699 119.264 179.157C119.264 179.614 119.291 179.93 119.346 180.104C119.4 180.277 119.453 180.476 119.505 180.698C119.557 180.921 119.607 181.091 119.654 181.208C119.724 181.381 119.84 181.508 120.003 181.587" fill="none" opacity="1" stroke="#e28e6e" stroke-linecap="round" stroke-linejoin="round" stroke-width="5.6693"/>
<path d="M121.148 179.233C107.868 184.15 97.2495 164.768 97.1442 154.475" fill="none" opacity="1" stroke="#e28e6e" stroke-linecap="round" stroke-linejoin="round" stroke-width="5.6693"/>
<path d="M97.8116 151.063C97.7373 150.889 97.6531 150.756 97.5591 150.665C97.4951 150.603 97.4218 150.559 97.3392 150.532C97.2565 150.506 97.0616 150.481 96.7545 150.456C96.4474 150.432 96.1962 150.418 96.001 150.413C95.8057 150.408 95.6436 150.424 95.5147 150.46C95.3856 150.496 95.2689 150.547 95.1643 150.615C95.0597 150.684 94.9541 150.769 94.8477 150.873C94.7412 150.977 94.5752 151.222 94.3494 151.608C94.1237 151.994 93.9883 152.232 93.9433 152.321C93.8982 152.41 93.8468 152.544 93.7891 152.723C93.7314 152.901 93.6904 153.055 93.6661 153.185C93.6419 153.314 93.6227 153.459 93.6087 153.62C93.5946 153.781 93.5869 153.94 93.5854 154.095C93.584 154.251 93.5898 154.386 93.6035 154.501C93.617 154.616 93.6679 154.778 93.7562 154.988C93.8445 155.197 93.9496 155.411 94.0717 155.631C94.1937 155.85 94.2997 156.027 94.3897 156.16C94.4797 156.293 94.5899 156.436 94.7201 156.59C94.8504 156.744 94.9853 156.886 95.1251 157.015C95.2649 157.144 95.4082 157.254 95.5549 157.346C95.7016 157.437 95.8603 157.506 96.0309 157.552C96.2016 157.597 96.4557 157.635 96.7931 157.665C97.1305 157.694 97.4504 157.712 97.7528 157.716C98.0552 157.722 98.2845 157.699 98.4407 157.649C98.5968 157.599 98.7622 157.529 98.9367 157.438C99.1112 157.348 99.2624 157.249 99.3904 157.143C99.5185 157.037 99.6456 156.917 99.7718 156.784C99.898 156.651 100.011 156.5 100.109 156.33C100.208 156.161 100.284 155.974 100.338 155.771C100.391 155.568 100.435 155.344 100.471 155.098C100.506 154.852 100.534 154.604 100.553 154.354C100.573 154.103 100.584 153.844 100.587 153.576C100.589 153.308 100.572 153.103 100.538 152.96C100.503 152.817 100.453 152.669 100.388 152.515C100.323 152.361 100.236 152.204 100.126 152.045C100.015 151.885 99.8935 151.744 99.7604 151.619C99.6272 151.495 99.4692 151.376 99.2862 151.26C99.1032 151.145 98.9078 151.045 98.6999 150.961C98.492 150.876 98.276 150.801 98.052 150.736C97.828 150.671 97.6118 150.623 97.4034 150.593C97.195 150.563 96.9787 150.545 96.7544 150.538C96.5302 150.532 96.3597 150.542 96.2431 150.57C96.1264 150.597 96.0296 150.649 95.9528 150.723C95.8421 150.83 95.8221 151.018 95.8928 151.286" fill="none" opacity="1" stroke="#e28e6e" stroke-linecap="round" stroke-linejoin="round" stroke-width="5.6693"/>
<path d="M27.7695 178.424C27.4956 177.669 27.2669 177.172 27.0833 176.933C26.9563 176.768 26.7467 176.595 26.4546 176.416C26.1624 176.237 25.8656 176.14 25.5642 176.125C25.2628 176.11 24.9802 176.167 24.7163 176.294C24.4524 176.421 24.2296 176.561 24.0478 176.715C23.8661 176.869 23.6719 177.101 23.4652 177.411C23.2586 177.72 23.072 178.085 22.9053 178.507C22.7387 178.928 22.6108 179.303 22.5217 179.63C22.4326 179.958 22.365 180.263 22.3188 180.545C22.2725 180.828 22.26 181.239 22.281 181.778C22.302 182.317 22.408 182.777 22.5992 183.157C22.7904 183.538 23.0213 183.888 23.292 184.208C23.5626 184.527 23.8548 184.823 24.1684 185.095C24.4821 185.367 24.7979 185.594 25.1157 185.775C25.4337 185.956 25.7392 186.079 26.0323 186.143C26.3253 186.208 26.614 186.248 26.8983 186.262C27.1826 186.275 27.4664 186.241 27.7498 186.157C28.0331 186.073 28.3496 185.914 28.6992 185.678C29.0488 185.442 29.2974 185.233 29.4452 185.052C29.5931 184.871 29.7354 184.632 29.8724 184.336C30.0094 184.04 30.1005 183.715 30.1459 183.362C30.1912 183.009 30.1971 182.641 30.1637 182.258C30.1304 181.876 30.015 181.508 29.8179 181.153C29.6206 180.799 29.3397 180.413 28.9749 179.998C28.6102 179.582 28.1232 179.09 27.5137 178.522C26.9043 177.953 26.3679 177.511 25.9045 177.195C25.4412 176.88 25.1122 176.684 24.9176 176.607C24.7229 176.53 24.4608 176.479 24.1312 176.453C23.8015 176.427 23.5667 176.464 23.4267 176.565C23.2867 176.666 23.156 176.81 23.0346 176.997C22.9131 177.184 22.7796 177.475 22.6341 177.87C22.4887 178.265 22.3847 178.621 22.3221 178.937C22.2595 179.253 22.2226 179.691 22.2112 180.249C22.1998 180.808 22.2097 181.246 22.2414 181.564C22.2729 181.883 22.3787 182.239 22.5589 182.632C22.739 183.026 22.9582 183.374 23.2165 183.677C23.4747 183.98 23.7557 184.223 24.0597 184.407C24.3637 184.591 24.6699 184.696 24.9784 184.722C25.287 184.748 25.561 184.681 25.8005 184.523C26.0399 184.364 26.2296 184.172 26.3694 183.947C26.5092 183.722 26.6271 183.412 26.7229 183.016C26.8188 182.621 26.8815 182.205 26.9109 181.769C26.9403 181.332 26.9552 180.897 26.9554 180.462C26.9557 180.027 26.9295 179.697 26.8768 179.474C26.8242 179.25 26.7215 178.984 26.5687 178.676C26.416 178.368 26.2118 178.048 25.9563 177.715C25.7008 177.383 25.4181 177.104 25.108 176.879C24.7981 176.654 24.4917 176.495 24.1888 176.402C23.886 176.31 23.6152 176.259 23.3763 176.249C23.1374 176.24 22.9175 176.277 22.7166 176.361C22.5157 176.445 22.3163 176.575 22.1183 176.751C21.9203 176.927 21.7317 177.149 21.5525 177.419C21.3732 177.689 21.2 177.998 21.0326 178.346C20.8653 178.695 20.7171 179.082 20.5881 179.507C20.459 179.932 20.3863 180.357 20.3698 180.781C20.3533 181.204 20.4096 181.618 20.5385 182.022C20.6675 182.426 20.8818 182.788 21.1812 183.106C21.4807 183.425 21.7803 183.67 22.0799 183.841C22.3795 184.012 22.6487 184.128 22.8872 184.191C23.1258 184.253 23.3613 184.281 23.5939 184.273C23.9269 184.262 24.4673 183.842 25.2152 183.013" fill="none" opacity="1" stroke="#e28e6e" stroke-linecap="round" stroke-linejoin="round" stroke-width="5.6693"/>
<path d="M39.8919 146.02C39.5803 145.618 39.3571 145.298 39.2222 145.06C39.1297 144.897 38.9954 144.77 38.8192 144.678C38.643 144.587 38.4493 144.535 38.2382 144.524C38.0271 144.512 37.8151 144.539 37.6022 144.605C37.3892 144.67 37.1707 144.785 36.9468 144.95C36.7229 145.116 36.488 145.322 36.2422 145.57C35.9965 145.818 35.776 146.097 35.5808 146.407C35.3855 146.718 35.2286 147.054 35.11 147.416C34.9915 147.778 34.9221 148.147 34.9018 148.523C34.8815 148.898 34.9357 149.233 35.0643 149.525C35.1928 149.817 35.3331 150.063 35.4851 150.262C35.637 150.461 35.8365 150.655 36.0835 150.843C36.3304 151.032 36.6109 151.185 36.9248 151.303C37.2387 151.422 37.5939 151.488 37.9902 151.503C38.3866 151.517 38.6873 151.494 38.8924 151.433C39.0975 151.371 39.3354 151.231 39.6059 151.011C39.8765 150.792 40.151 150.492 40.4295 150.113C40.708 149.733 40.9582 149.316 41.1798 148.862C41.4015 148.409 41.574 147.966 41.6974 147.534C41.8206 147.102 41.88 146.73 41.8755 146.417C41.8712 146.104 41.7611 145.859 41.5456 145.682C41.3303 145.504 41.0686 145.359 40.7605 145.248C40.4523 145.136 40.1227 145.033 39.7718 144.938C39.4207 144.844 38.9865 144.698 38.4692 144.502C37.952 144.306 37.5893 144.179 37.3812 144.123C37.1732 144.066 36.9819 144.031 36.8072 144.018C36.6326 144.005 36.4596 144.028 36.2883 144.089C36.1171 144.149 35.9607 144.286 35.8192 144.5C35.6778 144.714 35.5576 145.057 35.4586 145.529C35.3596 146.001 35.2925 146.409 35.2574 146.752C35.2223 147.096 35.2042 147.51 35.2032 147.995C35.2025 148.48 35.2323 148.904 35.2934 149.266C35.3545 149.628 35.4534 149.927 35.5902 150.164C35.7269 150.401 35.8527 150.57 35.9675 150.671C36.0823 150.772 36.2424 150.867 36.4478 150.954C36.6531 151.042 36.9051 151.094 37.2038 151.11C37.5024 151.126 37.8248 151.054 38.1707 150.893C38.5166 150.732 38.8534 150.478 39.1808 150.131C39.5083 149.784 39.7779 149.42 39.9898 149.038C40.2016 148.656 40.3529 148.307 40.4437 147.991C40.5344 147.674 40.5928 147.341 40.619 146.991C40.6453 146.64 40.6311 146.387 40.5766 146.232C40.522 146.076 40.4077 145.917 40.2336 145.755C40.0597 145.593 39.8206 145.435 39.5167 145.279C39.2127 145.124 38.8949 145.02 38.5632 144.966C38.2315 144.912 37.8984 144.883 37.5638 144.878C37.2294 144.872 36.9105 144.919 36.6074 145.018C36.3043 145.117 36.0363 145.253 35.8038 145.425C35.5712 145.598 35.3598 145.8 35.1696 146.033C34.9049 146.357 34.9976 146.609 35.4479 146.789" fill="none" opacity="1" stroke="#e28e6e" stroke-linecap="round" stroke-linejoin="round" stroke-width="5.6693"/>
<path d="M312.241 91.0978C310.575 91.1418 308.743 91.0171 306.747 90.7236C305.43 90.5301 304.284 90.418 303.31 90.3874C302.336 90.3568 301.794 90.7177 301.683 91.4702C301.571 92.2227 301.516 93.0756 301.515 94.0292C301.515 94.9827 301.585 95.8225 301.725 96.5486C301.865 97.2747 302.022 97.8536 302.197 98.2854C302.371 98.7171 303.484 99.1471 305.537 99.5755C307.59 100.004 308.932 100.326 309.563 100.543C310.193 100.759 310.892 101.096 311.658 101.553C312.425 102.01 313.077 102.488 313.616 102.988C314.155 103.487 314.43 103.902 314.442 104.233C314.454 104.563 313.937 104.897 312.89 105.233C311.843 105.57 310.363 105.899 308.45 106.22C306.537 106.542 304.975 106.743 303.764 106.825C302.553 106.906 301.914 106.949 301.848 106.953C301.781 106.957 301.759 106.954 301.782 106.942C301.814 106.926 302.236 106.709 303.047 106.291" fill="none" opacity="1" stroke="#72afa9" stroke-linecap="round" stroke-linejoin="round" stroke-width="3.40158"/>
<path d="M228.871 67.4704C228.575 66.7466 227.758 66.3784 226.422 66.3658C225.513 66.3572 224.527 66.4992 223.465 66.7916C222.402 67.084 221.469 67.2902 220.665 67.4101C219.861 67.53 219.109 67.6056 218.407 67.637C217.706 67.6683 217.429 67.3589 217.577 66.7088C217.725 66.0587 218.262 64.9647 219.188 63.4265C220.115 61.8884 220.845 60.5469 221.381 59.4022C221.916 58.2575 222.231 57.5852 222.324 57.3854C222.418 57.1857 222.463 57.434 222.46 58.1303C222.458 58.8266 222.45 61.1698 222.435 65.1599C222.421 69.15 222.456 71.4792 222.541 72.1476C222.625 72.816 222.757 73.3677 222.936 73.8026C223.2 74.4433 223.63 74.8427 224.226 75.0008" fill="none" opacity="1" stroke="#72afa9" stroke-linecap="round" stroke-linejoin="round" stroke-width="3.40158"/>
<path d="M49.7122 164.605C49.9622 164.206 50.1126 163.966 50.1632 163.886C50.1985 163.829 50.2235 163.904 50.238 164.109C50.2526 164.315 50.287 164.803 50.3415 165.574C50.3959 166.344 50.6432 167.468 51.0832 168.946C51.5234 170.423 51.7519 171.505 51.7688 172.193" fill="none" opacity="1" stroke="#72afa9" stroke-linecap="round" stroke-linejoin="round" stroke-width="3.40158"/>
<path d="M115.219 155.467C114.751 154.195 114.865 153.136 115.563 152.293C116.044 151.711 116.63 151.226 117.32 150.84C118.009 150.453 118.525 150.252 118.868 150.237C119.21 150.223 119.475 150.477 119.661 151.001C119.847 151.525 119.941 152.05 119.941 152.574C119.942 153.099 119.586 154.408 118.875 156.502C118.163 158.597 117.722 160.022 117.55 160.78C117.379 161.537 118.041 162.051 119.537 162.321C121.775 162.724 123.96 162.69 126.091 162.216" fill="none" opacity="1" stroke="#72afa9" stroke-linecap="round" stroke-linejoin="round" stroke-width="3.40158"/>
<path d="M144.259 147.552C143.964 146.914 144.777 146.545 146.7 146.447C148.622 146.349 149.847 146.299 150.373 146.296C150.9 146.293 151.081 146.715 150.917 147.562C150.752 148.409 150.673 149.064 150.678 149.528C150.683 149.992 151.093 150.544 151.907 151.184C152.721 151.825 153.423 152.478 154.015 153.144C154.606 153.81 155.01 154.491 155.227 155.186C155.443 155.881 155.534 156.435 155.498 156.845C155.462 157.256 155.128 157.556 154.497 157.744C153.585 158.015 151.833 158.077 149.243 157.929" fill="none" opacity="1" stroke="#72afa9" stroke-linecap="round" stroke-linejoin="round" stroke-width="3.40158"/>
<path d="M39.5608 143.817C39.4276 143.746 39.3219 143.638 39.2438 143.495C39.1915 143.399 39.1507 143.329 39.1217 143.286C39.0926 143.243 39.0462 143.203 38.9825 143.167C38.9188 143.132 38.8491 143.111 38.7736 143.105C38.6982 143.099 38.5126 143.06 38.2171 142.989C37.9216 142.919 37.7277 142.877 37.6351 142.866C37.5426 142.855 37.399 142.85 37.2044 142.852C37.0098 142.854 36.8598 142.869 36.7547 142.899C36.6494 142.928 36.5381 142.969 36.4206 143.024C36.3032 143.078 36.1507 143.167 35.9632 143.289C35.7758 143.411 35.633 143.511 35.535 143.59C35.437 143.669 35.3062 143.783 35.1428 143.933C34.9795 144.082 34.8374 144.21 34.7167 144.317C34.596 144.424 34.4916 144.535 34.4035 144.648C34.3154 144.761 34.2151 144.927 34.1025 145.145C33.9899 145.362 33.904 145.548 33.8448 145.702C33.7855 145.856 33.7448 145.972 33.7229 146.05C33.7008 146.128 33.683 146.223 33.6694 146.334C33.6557 146.445 33.6487 146.571 33.6484 146.712C33.6481 146.852 33.6557 146.96 33.6707 147.036C33.6858 147.112 33.7326 147.247 33.8112 147.443C33.8896 147.638 33.9552 147.785 34.0077 147.884C34.0602 147.982 34.1195 148.076 34.1856 148.165C34.2516 148.254 34.3246 148.328 34.4043 148.386C34.484 148.444 34.6198 148.517 34.8116 148.604C35.0035 148.691 35.1286 148.743 35.1872 148.759C35.2458 148.775 35.2797 148.785 35.289 148.788C35.2983 148.79 35.2995 148.787 35.2926 148.779C35.2861 148.77 35.2607 148.739 35.2174 148.686C35.1742 148.633 35.1331 148.571 35.0942 148.499C35.0554 148.428 35.0136 148.342 34.9692 148.241C34.9247 148.14 34.8822 148.027 34.8418 147.903C34.8013 147.778 34.767 147.65 34.7387 147.52C34.7104 147.39 34.6912 147.263 34.6812 147.14C34.6712 147.017 34.6657 146.896 34.6647 146.778C34.664 146.66 34.6761 146.536 34.7019 146.404C34.7278 146.273 34.7644 146.15 34.812 146.035C34.8595 145.92 34.9072 145.819 34.9552 145.73C35.0032 145.641 35.0771 145.527 35.1768 145.388C35.2764 145.249 35.3967 145.098 35.5376 144.935C35.6786 144.773 35.7913 144.65 35.876 144.566C35.9607 144.483 36.0949 144.376 36.2786 144.245C36.4623 144.115 36.6169 144.006 36.7425 143.919C36.8681 143.832 36.9913 143.761 37.1122 143.706C37.233 143.65 37.3568 143.6 37.4836 143.555C37.6104 143.51 37.7523 143.449 37.9094 143.373C38.0664 143.297 38.2131 143.228 38.3494 143.166C38.4857 143.104 38.5896 143.06 38.6611 143.032C38.7326 143.005 38.8056 142.982 38.8801 142.963C38.9547 142.944 39.0568 142.93 39.1862 142.919C39.3157 142.909 39.4331 142.917 39.5386 142.941C39.644 142.966 39.7465 143.004 39.8459 143.056C39.9453 143.108 40.0896 143.211 40.2789 143.364C40.4682 143.517 40.598 143.637 40.6683 143.724C40.7387 143.811 40.8024 143.907 40.8595 144.011C40.9166 144.115 40.9658 144.232 41.0069 144.362C41.048 144.492 41.0767 144.619 41.093 144.746C41.1092 144.872 41.1333 145.023 41.1653 145.197C41.1972 145.371 41.231 145.56 41.2668 145.764C41.3026 145.967 41.3358 146.136 41.3664 146.269C41.397 146.403 41.4208 146.531 41.4379 146.653C41.455 146.776 41.4612 146.9 41.4567 147.025C41.4523 147.151 41.4187 147.321 41.3564 147.536C41.2941 147.751 41.2208 147.982 41.1367 148.227C41.0526 148.473 40.9763 148.677 40.908 148.84C40.8398 149.003 40.7716 149.149 40.7037 149.277C40.6358 149.405 40.5569 149.522 40.4673 149.628C40.3776 149.734 40.2501 149.846 40.0847 149.966C39.9193 150.085 39.7718 150.186 39.6419 150.268C39.5121 150.351 39.3697 150.431 39.2147 150.508C39.0598 150.585 38.9312 150.639 38.8289 150.67C38.7267 150.7 38.6196 150.721 38.5078 150.732C38.3959 150.744 38.2902 150.749 38.1908 150.749C38.0914 150.749 37.9886 150.745 37.8824 150.735C37.7763 150.726 37.6167 150.685 37.4038 150.614C37.191 150.542 37.0323 150.484 36.9278 150.44C36.8232 150.395 36.7239 150.347 36.6296 150.294C36.5354 150.241 36.392 150.14 36.1996 149.991C36.0072 149.842 35.8096 149.696 35.6067 149.554C35.4039 149.411 35.2667 149.311 35.1953 149.252C35.1239 149.193 35.0288 149.082 34.9101 148.919C34.7914 148.756 34.6972 148.605 34.6275 148.466C34.5579 148.326 34.5056 148.187 34.4707 148.047C34.4358 147.907 34.4166 147.725 34.4129 147.502C34.4093 147.279 34.41 147.072 34.4151 146.882C34.4202 146.692 34.3833 146.552 34.3046 146.461C34.2258 146.371 34.1294 146.32 34.0154 146.308C33.9014 146.297 33.827 146.303 33.7925 146.328C33.7579 146.353 33.7114 146.412 33.6529 146.506C33.5944 146.601 33.5437 146.697 33.5007 146.795C33.4578 146.894 33.4147 147.03 33.3715 147.204C33.3283 147.377 33.2944 147.569 33.2697 147.777C33.2451 147.985 33.2325 148.146 33.2319 148.259C33.2314 148.372 33.2777 148.489 33.371 148.609C33.4643 148.729 33.6137 148.909 33.8192 149.149C34.0248 149.389 34.1955 149.576 34.3315 149.71C34.4675 149.845 34.5774 149.941 34.6615 150.001C34.7455 150.06 34.8926 150.145 35.1025 150.254C35.3125 150.364 35.4784 150.447 35.6003 150.503C35.7222 150.559 35.8446 150.612 35.9675 150.663C36.0903 150.715 36.2129 150.761 36.3352 150.802C36.4574 150.843 36.58 150.877 36.7029 150.906C36.8258 150.934 36.9438 150.954 37.0569 150.967C37.17 150.979 37.3512 150.987 37.6006 150.991C37.8501 150.994 38.0339 150.979 38.152 150.943C38.2702 150.907 38.3878 150.856 38.5051 150.79C38.6223 150.724 38.7434 150.643 38.8684 150.548C38.9934 150.453 39.1099 150.348 39.218 150.233C39.3261 150.117 39.4337 149.996 39.5407 149.867C39.6478 149.738 39.744 149.618 39.8294 149.507C39.9147 149.395 39.9832 149.296 40.035 149.208C40.0867 149.121 40.1296 149.032 40.1636 148.942C40.1976 148.852 40.2436 148.669 40.3016 148.395C40.3597 148.121 40.4107 147.908 40.4549 147.757C40.499 147.607 40.5682 147.415 40.6623 147.183C40.7565 146.951 40.8187 146.791 40.8491 146.705C40.8794 146.619 40.9091 146.498 40.938 146.342C40.967 146.187 40.9899 146.022 41.0066 145.85C41.0232 145.677 41.0328 145.477 41.0355 145.251C41.0384 145.024 41.0446 144.849 41.0552 144.724C41.0657 144.599 41.0688 144.47 41.0646 144.336C41.0602 144.202 41.058 144.131 41.058 144.124C41.0578 144.117 41.0587 144.117 41.0616 144.124C41.0646 144.131 41.0919 144.199 41.144 144.329C41.1961 144.459 41.2371 144.578 41.2669 144.687C41.2967 144.795 41.3429 145.006 41.4055 145.32C41.468 145.634 41.5121 145.851 41.5376 145.97C41.563 146.09 41.5774 146.216 41.5806 146.348C41.5835 146.481 41.5806 146.586 41.5709 146.666C41.5611 146.745 41.5344 146.865 41.4908 147.025C41.4472 147.185 41.4078 147.343 41.3723 147.5C41.3368 147.657 41.3017 147.817 41.2671 147.981C41.2324 148.145 41.18 148.326 41.11 148.524C41.0399 148.722 40.985 148.867 40.9451 148.958C40.9052 149.05 40.8616 149.141 40.8144 149.232C40.7672 149.323 40.7223 149.401 40.6796 149.468C40.6369 149.535 40.5918 149.592 40.5443 149.639C40.4748 149.708 40.3689 149.775 40.2267 149.84" fill="none" opacity="1" stroke="#e28e6e" stroke-linecap="round" stroke-linejoin="round" stroke-width="5.6693"/>
<path d="M27.7182 176.594C27.6024 176.526 27.4382 176.487 27.2254 176.479C27.0126 176.471 26.8486 176.452 26.7335 176.421C26.6184 176.39 26.4886 176.365 26.3442 176.346C26.1998 176.326 26.0515 176.284 25.8993 176.22C25.7472 176.156 25.6147 176.109 25.5017 176.081C25.3888 176.052 25.2845 176.033 25.1888 176.024C25.0932 176.016 24.9784 176.012 24.8443 176.011C24.7101 176.011 24.6163 176.013 24.5627 176.018C24.5092 176.024 24.429 176.048 24.3221 176.09C24.2153 176.133 24.0868 176.192 23.9366 176.267C23.7864 176.343 23.6715 176.408 23.5915 176.462C23.5115 176.517 23.4352 176.578 23.3624 176.646C23.2896 176.714 23.2022 176.808 23.1003 176.929C22.9984 177.05 22.8686 177.182 22.711 177.325C22.5533 177.468 22.4143 177.603 22.2938 177.728C22.1733 177.854 22.0857 177.938 22.031 177.982C21.9763 178.026 21.9075 178.099 21.8243 178.203C21.7411 178.306 21.6757 178.397 21.6283 178.475C21.5807 178.553 21.5265 178.662 21.4656 178.803C21.4047 178.943 21.3447 179.095 21.2857 179.258C21.2267 179.422 21.1843 179.567 21.1585 179.693C21.1327 179.819 21.1139 180.005 21.1021 180.252C21.0904 180.5 21.0779 180.701 21.0648 180.858C21.0516 181.014 21.0448 181.219 21.0446 181.47C21.0443 181.722 21.049 181.879 21.058 181.94C21.0672 182 21.1039 182.133 21.1683 182.338C21.2327 182.543 21.2872 182.741 21.332 182.933C21.3767 183.124 21.4331 183.303 21.501 183.469C21.5688 183.634 21.6283 183.762 21.6792 183.851C21.7301 183.941 21.8005 184.042 21.8904 184.155C21.9803 184.267 22.0883 184.376 22.2144 184.48C22.3404 184.584 22.4514 184.67 22.5473 184.74C22.6433 184.809 22.7436 184.868 22.8483 184.915C22.953 184.962 23.0789 184.999 23.2263 185.026C23.3736 185.053 23.519 185.073 23.6625 185.084C23.8059 185.096 24.1106 185.102 24.5764 185.102C25.0422 185.103 25.3371 185.093 25.461 185.073C25.5849 185.053 25.7087 185.024 25.8324 184.988C25.956 184.952 26.0728 184.905 26.1826 184.848C26.2924 184.79 26.3739 184.742 26.427 184.703C26.4801 184.664 26.5358 184.612 26.5939 184.549C26.6521 184.486 26.7515 184.348 26.8923 184.136C27.0331 183.924 27.1227 183.849 27.1611 183.911C27.1995 183.973 27.2369 184.071 27.2734 184.205C27.3096 184.339 27.3352 184.495 27.35 184.672C27.3648 184.85 27.371 184.999 27.3688 185.12C27.3667 185.242 27.3541 185.337 27.3312 185.405C27.3083 185.474 27.2774 185.533 27.2386 185.581C27.1998 185.63 27.1406 185.673 27.0609 185.712C26.9813 185.75 26.8772 185.795 26.7487 185.846C26.6202 185.898 26.4827 185.959 26.3361 186.031C26.1896 186.103 26.0703 186.154 25.9781 186.186C25.8859 186.217 25.7875 186.238 25.6832 186.247C25.5788 186.257 25.4258 186.26 25.2242 186.258C25.0225 186.256 24.8191 186.227 24.6139 186.172C24.4088 186.117 24.2613 186.067 24.1715 186.02C24.0818 185.974 23.9283 185.868 23.7109 185.701C23.4935 185.534 23.318 185.387 23.1845 185.259C23.051 185.13 22.9158 185.018 22.7788 184.923C22.6418 184.828 22.5194 184.724 22.4115 184.613C22.3036 184.502 22.205 184.388 22.1156 184.273C22.0262 184.158 21.94 184.031 21.8568 183.893C21.7736 183.754 21.6778 183.568 21.5692 183.334C21.4606 183.101 21.3771 182.898 21.3184 182.726C21.2599 182.554 21.217 182.41 21.1899 182.293C21.1628 182.177 21.1429 182.063 21.1304 181.952C21.1179 181.841 21.111 181.646 21.1096 181.369C21.1082 181.091 21.12 180.86 21.145 180.676C21.1699 180.492 21.1998 180.334 21.2347 180.202C21.2696 180.07 21.3136 179.94 21.3667 179.812C21.4198 179.684 21.5102 179.492 21.638 179.235C21.7658 178.979 21.8914 178.743 22.0148 178.527C22.1382 178.311 22.2328 178.154 22.2987 178.055C22.3644 177.956 22.4307 177.866 22.4975 177.787C22.5643 177.707 22.6262 177.643 22.6833 177.594C22.7405 177.545 22.8024 177.515 22.8691 177.505C22.9646 177.489 23.0466 177.55 23.115 177.686" fill="none" opacity="1" stroke="#e28e6e" stroke-linecap="round" stroke-linejoin="round" stroke-width="5.6693"/>
<path d="M122.226 177.109C122.18 177.037 122.106 176.975 122.003 176.923C121.936 176.889 121.87 176.872 121.805 176.874C121.741 176.875 121.646 176.903 121.521 176.957C121.396 177.012 121.241 177.092 121.056 177.197C120.872 177.302 120.656 177.429 120.409 177.577C120.162 177.726 119.98 177.834 119.861 177.901C119.743 177.968 119.64 178.021 119.552 178.06C119.464 178.1 119.381 178.16 119.302 178.243C119.223 178.325 119.16 178.404 119.113 178.479C119.066 178.554 119.024 178.637 118.988 178.726C118.952 178.816 118.901 179.04 118.835 179.397C118.768 179.755 118.719 180.031 118.685 180.226C118.652 180.422 118.634 180.639 118.63 180.876C118.626 181.114 118.635 181.292 118.657 181.41C118.678 181.527 118.721 181.7 118.784 181.926C118.847 182.153 118.903 182.361 118.952 182.549C119.001 182.738 119.054 182.912 119.109 183.069C119.165 183.227 119.239 183.392 119.33 183.565C119.42 183.737 119.533 183.926 119.667 184.132C119.801 184.337 119.891 184.466 119.937 184.52C119.983 184.574 120.046 184.632 120.126 184.696C120.206 184.76 120.353 184.829 120.566 184.902C120.779 184.976 120.961 185.04 121.11 185.095C121.259 185.15 121.394 185.187 121.513 185.207C121.632 185.226 121.763 185.237 121.903 185.237C122.044 185.238 122.142 185.234 122.199 185.226C122.256 185.218 122.353 185.183 122.492 185.122C122.631 185.061 122.797 184.979 122.99 184.878C123.182 184.777 123.347 184.679 123.484 184.584C123.62 184.49 123.759 184.386 123.898 184.274C124.038 184.161 124.142 184.073 124.213 184.009C124.283 183.946 124.388 183.834 124.527 183.673C124.667 183.513 124.812 183.339 124.961 183.151C125.111 182.964 125.217 182.812 125.279 182.697C125.342 182.582 125.395 182.438 125.439 182.264C125.483 182.091 125.515 181.934 125.534 181.794C125.553 181.655 125.563 181.384 125.563 180.982C125.564 180.579 125.551 180.328 125.524 180.229C125.498 180.129 125.466 180.037 125.43 179.954C125.394 179.87 125.333 179.749 125.246 179.591C125.159 179.432 125.049 179.264 124.915 179.086C124.782 178.908 124.654 178.729 124.532 178.55C124.409 178.372 124.322 178.239 124.27 178.152C124.218 178.065 124.149 177.964 124.063 177.849C123.934 177.677 123.822 177.599 123.725 177.616" fill="none" opacity="1" stroke="#e28e6e" stroke-linecap="round" stroke-linejoin="round" stroke-width="5.6693"/>
<path d="M304.491 77.3395C303.653 78.7123 301.861 79.1459 300.488 78.3078C299.115 77.4698 298.681 75.6775 299.519 74.3046C300.357 72.9318 302.15 72.4983 303.523 73.3363C304.895 74.1744 305.329 75.9667 304.491 77.3395Z" fill="#72afa9" fill-opacity="0.1" fill-rule="nonzero" opacity="1" stroke="none"/>
<path d="M304.491 77.3396C303.653 78.7124 301.861 79.1459 300.488 78.3079C299.115 77.4698 298.681 75.6775 299.519 74.3047C300.358 72.9319 302.15 72.4983 303.523 73.3364C304.895 74.1744 305.329 75.9667 304.491 77.3396Z" fill="none" opacity="1" stroke="#72afa9" stroke-linecap="butt" stroke-linejoin="miter" stroke-width="5.6693"/>
<path d="M225.185 32.4794C227.074 33.5795 227.714 36.0029 226.614 37.8923C225.514 39.7817 223.09 40.4216 221.201 39.3216C219.312 38.2216 218.672 35.7982 219.772 33.9087C220.872 32.0192 223.295 31.3794 225.185 32.4794Z" fill="#72afa9" fill-rule="nonzero" opacity="1" stroke="#72afa9" stroke-linecap="butt" stroke-linejoin="miter" stroke-width="5.6693"/>
<path d="M170.809 149.858C168.514 149.108 167.262 146.64 168.011 144.346C168.761 142.051 171.228 140.798 173.523 141.548C175.818 142.297 177.071 144.765 176.321 147.06C175.572 149.354 173.104 150.607 170.809 149.858Z" fill="#e28e6e" fill-opacity="0.1" fill-rule="nonzero" opacity="1" stroke="none"/>
<path d="M170.809 149.858C168.514 149.108 167.262 146.64 168.011 144.346C168.761 142.051 171.228 140.798 173.523 141.548C175.818 142.297 177.071 144.765 176.321 147.06C175.572 149.354 173.104 150.607 170.809 149.858Z" fill="none" opacity="1" stroke="#e28e6e" stroke-linecap="butt" stroke-linejoin="miter" stroke-width="5.6693"/>
<path d="M147.853 183.179L153.32 183.179L153.32 174.239L147.853 174.239L147.853 183.179Z" fill="#e28e6e" fill-opacity="0.1" fill-rule="nonzero" opacity="1" stroke="none"/>
<path d="M151.18 174.83C153.376 174.603 155.34 176.2 155.567 178.396C155.793 180.591 154.197 182.555 152.001 182.782C149.805 183.008 147.841 181.412 147.615 179.216C147.388 177.02 148.984 175.056 151.18 174.83Z" fill="#e28e6e" fill-opacity="0.1" fill-rule="nonzero" opacity="1" stroke="none"/>
<path d="M151.18 174.83C153.376 174.603 155.34 176.2 155.567 178.396C155.793 180.591 154.197 182.555 152.001 182.782C149.805 183.008 147.841 181.412 147.615 179.216C147.388 177.02 148.984 175.056 151.18 174.83Z" fill="none" opacity="1" stroke="#e28e6e" stroke-linecap="butt" stroke-linejoin="miter" stroke-width="5.6693"/>
<path d="M123.104 176.631C125.42 177.011 126.989 179.196 126.609 181.512C126.229 183.828 124.043 185.397 121.728 185.016C119.412 184.636 117.843 182.451 118.223 180.135C118.603 177.82 120.789 176.25 123.104 176.631Z" fill="#e28e6e" fill-opacity="0.1" fill-rule="nonzero" opacity="1" stroke="none"/>
<path d="M123.104 176.631C125.42 177.011 126.989 179.196 126.609 181.512C126.229 183.828 124.043 185.397 121.728 185.016C119.412 184.636 117.843 182.451 118.223 180.135C118.603 177.82 120.789 176.251 123.104 176.631Z" fill="none" opacity="1" stroke="#e28e6e" stroke-linecap="butt" stroke-linejoin="miter" stroke-width="5.6693"/>
<path d="M97.7753 149.685C99.4487 149.976 100.501 151.961 100.127 154.12C99.752 156.279 98.0916 157.793 96.4183 157.503C94.7449 157.212 93.6921 155.227 94.0668 153.068C94.4416 150.909 96.102 149.395 97.7753 149.685Z" fill="#e28e6e" fill-opacity="0.1" fill-rule="nonzero" opacity="1" stroke="none"/>
<path d="M97.7753 149.685C99.4487 149.976 100.501 151.961 100.127 154.12C99.752 156.279 98.0917 157.793 96.4183 157.503C94.7449 157.212 93.6921 155.227 94.0669 153.068C94.4416 150.909 96.1019 149.395 97.7753 149.685Z" fill="none" opacity="1" stroke="#e28e6e" stroke-linecap="butt" stroke-linejoin="miter" stroke-width="5.6693"/>
<path d="M42.8379 150.302C41.5096 152.507 38.6454 153.217 36.4405 151.889C34.2355 150.561 33.5248 147.696 34.8531 145.492C36.1813 143.287 39.0456 142.576 41.2505 143.904C43.4555 145.232 44.1662 148.097 42.8379 150.302Z" fill="#e28e6e" fill-opacity="0.1" fill-rule="nonzero" opacity="1" stroke="none"/>
<path d="M42.8379 150.302C41.5096 152.507 38.6454 153.217 36.4405 151.889C34.2355 150.561 33.5248 147.697 34.8531 145.492C36.1813 143.287 39.0456 142.576 41.2505 143.904C43.4555 145.232 44.1661 148.097 42.8379 150.302Z" fill="none" opacity="1" stroke="#e28e6e" stroke-linecap="butt" stroke-linejoin="miter" stroke-width="5.6693"/>
<path d="M30.0626 183.888C28.5245 186.358 25.2758 187.112 22.8066 185.574C20.3373 184.036 19.5825 180.787 21.1206 178.318C22.6588 175.849 25.9074 175.094 28.3767 176.632C30.846 178.17 31.6008 181.419 30.0626 183.888Z" fill="#e28e6e" fill-opacity="0.1" fill-rule="nonzero" opacity="1" stroke="none"/>
<path d="M30.0627 183.888C28.5245 186.357 25.2758 187.112 22.8066 185.574C20.3373 184.036 19.5825 180.787 21.1206 178.318C22.6588 175.849 25.9074 175.094 28.3767 176.632C30.846 178.17 31.6008 181.419 30.0627 183.888Z" fill="none" opacity="1" stroke="#e28e6e" stroke-linecap="butt" stroke-linejoin="miter" stroke-width="5.6693"/>
</g>
</svg>
